<?xml version="1.0" encoding="UTF-8"?>
<svg xmlns="http://www.w3.org/2000/svg" width="957" height="238" viewBox="0 0 957 238" fill="none">
  <path d="M380.715 101.566V15.3566H400.091V101.566H380.715ZM324.949 101.566V15.3566H344.325V101.566H324.949ZM340.898 66.7279V49.7223H384.141V66.7279H340.898Z" fill="black"></path>
  <path d="M455.125 101.566V82.4345H451.932V61.6498C451.932 58.3434 451.144 55.8632 449.573 54.21C447.995 52.5568 445.475 51.7298 442.009 51.7298C440.276 51.7298 437.992 51.7691 435.156 51.8483C432.321 51.927 429.407 52.0447 426.414 52.2026C423.421 52.3596 420.703 52.517 418.262 52.6749V36.7318C420.073 36.5744 422.2 36.4169 424.641 36.2594C427.083 36.102 429.604 35.9839 432.203 35.9052C434.802 35.8265 437.244 35.7871 439.528 35.7871C446.144 35.7871 451.696 36.7318 456.185 38.6214C460.757 40.511 464.218 43.3846 466.586 47.2426C468.948 51.0217 470.13 55.903 470.13 61.8864V101.566H455.125ZM434.448 103.219C429.8 103.219 425.705 102.393 422.161 100.739C418.694 99.0863 415.977 96.7241 414.008 93.6535C412.039 90.5045 411.054 86.7647 411.054 82.4345C411.054 77.7107 412.275 73.8528 414.717 70.8613C417.159 67.7907 420.585 65.547 424.996 64.13C429.407 62.6338 434.487 61.886 440.237 61.886H454.061V72.3964H440.118C436.81 72.3964 434.25 73.223 432.439 74.8766C430.706 76.4511 429.84 78.6164 429.84 81.3722C429.84 83.9696 430.706 86.0956 432.439 87.7488C434.25 89.3237 436.81 90.1109 440.118 90.1109C442.245 90.1109 444.136 89.7567 445.79 89.0477C447.522 88.2609 448.94 86.9616 450.045 85.1509C451.144 83.3398 451.777 80.8207 451.932 77.593L456.422 82.3164C456.03 86.8046 454.925 90.5833 453.117 93.6535C451.38 96.7241 448.94 99.0863 445.79 100.739C442.718 102.393 438.937 103.219 434.448 103.219Z" fill="black"></path>
  <path d="M512.865 103.81C507.279 103.81 502.393 102.905 498.222 101.094C494.123 99.2044 490.694 96.6852 487.937 93.5359C485.181 90.3865 483.138 86.8439 481.797 82.9073C480.455 78.892 479.787 74.7586 479.787 70.5071V68.2635C479.787 63.855 480.496 59.6424 481.911 55.6275C483.331 51.5334 485.419 47.9117 488.175 44.7624C490.936 41.6133 494.357 39.1334 498.455 37.3225C502.626 35.5117 507.393 34.6063 512.751 34.6063C518.58 34.6063 523.735 35.7479 528.227 38.0311C532.719 40.2355 536.3 43.3454 538.979 47.3607C541.657 51.376 543.155 55.9817 543.471 61.1779H524.921C524.605 58.2647 523.419 55.8243 521.377 53.8558C519.404 51.8085 516.533 50.7856 512.751 50.7856C509.596 50.7856 506.963 51.5728 504.834 53.1473C502.782 54.7222 501.253 56.8871 500.227 59.6424C499.206 62.3981 498.693 65.6656 498.693 69.4448C498.693 72.9086 499.165 76.058 500.108 78.892C501.051 81.6478 502.549 83.8131 504.595 85.3876C506.725 86.8833 509.481 87.6312 512.865 87.6312C515.388 87.6312 517.517 87.1982 519.248 86.3318C521.061 85.3876 522.476 84.1275 523.502 82.5531C524.605 80.8994 525.274 79.0101 525.507 76.8846H543.942C543.704 82.2382 542.207 86.9616 539.45 91.0561C536.694 95.071 533.031 98.2203 528.461 100.503C523.896 102.708 518.694 103.81 512.865 103.81Z" fill="black"></path>
  <path d="M599.274 101.566L578.834 71.3336H569.736L596.087 36.8499H615.933L591.119 68.9719L591.357 59.7604L620.544 101.566H599.274ZM553.668 101.566V15.3566H572.57V101.566H553.668Z" fill="black"></path>
  <path d="M664.717 101.566V82.4345H661.525V61.6498C661.525 58.3434 660.737 55.8632 659.167 54.21C657.587 52.5568 655.069 51.7298 651.603 51.7298C649.872 51.7298 647.587 51.7691 644.748 51.8483C641.913 51.927 639.001 52.0447 636.007 52.2026C633.012 52.3596 630.292 52.517 627.856 52.6749V36.7318C629.665 36.5744 631.789 36.4169 634.235 36.2594C636.675 36.102 639.198 35.9839 641.799 35.9052C644.395 35.8265 646.84 35.7871 649.116 35.7871C655.737 35.7871 661.287 36.7318 665.779 38.6214C670.349 40.511 673.81 43.3846 676.178 47.2426C678.54 51.0217 679.722 55.903 679.722 61.8864V101.566H664.717ZM644.043 103.219C639.39 103.219 635.297 102.393 631.753 100.739C628.286 99.0863 625.571 96.7241 623.602 93.6535C621.633 90.5045 620.649 86.7647 620.649 82.4345C620.649 77.7107 621.867 73.8528 624.307 70.8613C626.748 67.7907 630.178 65.547 634.587 64.13C639.001 62.6338 644.084 61.886 649.831 61.886H663.654V72.3964H649.711C646.401 72.3964 643.841 73.223 642.033 74.8766C640.302 76.4511 639.432 78.6164 639.432 81.3722C639.432 83.9696 640.302 86.0956 642.033 87.7488C643.841 89.3237 646.401 90.1109 649.711 90.1109C651.841 90.1109 653.727 89.7567 655.385 89.0477C657.116 88.2609 658.53 86.9616 659.639 85.1509C660.738 83.3398 661.369 80.8207 661.525 77.593L666.012 82.3164C665.623 86.8046 664.52 90.5833 662.711 93.6535C660.971 96.7241 658.53 99.0863 655.385 100.739C652.312 102.393 648.53 103.219 644.043 103.219Z" fill="black"></path>
  <path d="M722.814 102.393C716.276 102.393 711.001 101.605 706.985 100.031C702.965 98.3777 700.016 95.6613 698.12 91.8822C696.307 88.0243 695.405 82.8286 695.405 76.2936V19.3717H713.011V77.0021C713.011 80.0728 713.798 82.4345 715.374 84.0881C717.027 85.6626 719.348 86.4498 722.343 86.4498H731.913V102.393H722.814ZM685.601 50.667V36.8499H731.913V50.667H685.601Z" fill="black"></path>
  <path d="M742.266 101.566V15.3566H761.168V65.0747H758.329C758.329 58.5402 759.157 53.0291 760.81 48.5415C762.468 44.0538 764.909 40.6684 768.137 38.3852C771.365 36.0233 775.422 34.8423 780.308 34.8423H781.132C788.302 34.8423 793.774 37.4011 797.556 42.5186C801.334 47.557 803.23 54.9578 803.23 64.7204V101.566H784.323V63.5396C784.323 59.9966 783.261 57.1625 781.132 55.0366C779.09 52.8323 776.365 51.7297 772.981 51.7297C769.437 51.7297 766.562 52.8717 764.354 55.1547C762.225 57.4381 761.168 60.4689 761.168 64.2481V101.566H742.266Z" fill="black"></path>
  <path d="M848.52 103.81C842.851 103.81 837.81 102.944 833.396 101.212C828.986 99.4012 825.241 96.9608 822.173 93.8901C819.183 90.8199 816.898 87.3163 815.318 83.3797C813.743 79.3643 812.956 75.1526 812.956 70.7437V68.0273C812.956 63.5396 813.743 59.2881 815.318 55.2732C816.971 51.1787 819.338 47.5968 822.411 44.5264C825.557 41.4558 829.339 39.0546 833.753 37.3225C838.163 35.5117 843.085 34.6063 848.52 34.6063C854.111 34.6063 859.075 35.5117 863.406 37.3225C867.816 39.0546 871.557 41.4558 874.629 44.5264C877.702 47.5968 880.065 51.1787 881.718 55.2732C883.375 59.2881 884.199 63.5396 884.199 68.0273V70.7437C884.199 75.1526 883.412 79.3643 881.837 83.3797C880.261 87.3163 877.935 90.8199 874.863 93.8901C871.873 96.9608 868.173 99.4012 863.759 101.212C859.349 102.944 854.267 103.81 848.52 103.81ZM848.52 87.8673C852.22 87.8673 855.292 87.0801 857.733 85.5052C860.178 83.9307 862.023 81.726 863.287 78.892C864.624 76.058 865.293 72.9086 865.293 69.4448C865.293 65.7443 864.624 62.5162 863.287 59.7605C861.95 56.9264 860.018 54.6824 857.495 53.0292C855.054 51.376 852.064 50.5489 848.52 50.5489C845.054 50.5489 842.064 51.376 839.541 53.0292C837.022 54.6824 835.09 56.9264 833.753 59.7605C832.494 62.5162 831.857 65.7443 831.857 69.4448C831.857 72.9086 832.494 76.058 833.753 78.892C835.012 81.726 836.899 83.9307 839.422 85.5052C841.94 87.0801 844.976 87.8673 848.52 87.8673Z" fill="black"></path>
  <path d="M895.029 101.566V36.8499H910.034V64.6023H908.971C908.971 57.9891 909.8 52.478 911.453 48.0691C913.184 43.6601 915.785 40.3534 919.247 38.149C922.713 35.9445 926.925 34.8423 931.894 34.8423H932.713C940.278 34.8423 946.029 37.3223 949.967 42.2823C953.983 47.1638 955.993 54.6036 955.993 64.6023V101.566H937.091V63.5395C937.091 60.0753 936.065 57.2408 934.014 55.0365C931.967 52.8323 929.21 51.7297 925.744 51.7297C922.2 51.7297 919.329 52.8717 917.122 55.1546C914.997 57.3593 913.93 60.2721 913.93 63.8938V101.566H895.029Z" fill="black"></path>
  <path d="M324.949 222.569V136.359H336.527V222.569H324.949ZM334.164 184.188V173.795L371.145 173.678V184.07L334.164 184.188ZM334.164 146.752V136.359H373.154V146.752H334.164Z" fill="black"></path>
  <path d="M407.979 224.458C400.496 224.458 394.746 222.018 390.729 217.137C386.712 212.255 384.703 205.209 384.703 195.998V159.388H396.046V198.241C396.046 203.201 397.385 207.098 400.063 209.933C402.741 212.688 406.364 214.066 410.932 214.066C415.658 214.066 419.517 212.57 422.511 209.579C425.504 206.508 427 202.336 427 197.06V159.388H438.343V222.569H429.363V195.525H430.781C430.781 201.745 429.954 207.02 428.3 211.35C426.646 215.601 424.165 218.869 420.857 221.152C417.627 223.356 413.492 224.458 408.451 224.458H407.979Z" fill="black"></path>
  <path d="M458.655 222.569V136.359H469.997V222.569H458.655ZM449.913 145.334V136.359H469.997V145.334H449.913Z" fill="black"></path>
  <path d="M515.736 224.694C511.249 224.694 507.109 223.868 503.332 222.215C499.549 220.561 496.239 218.239 493.409 215.247C490.653 212.255 488.482 208.791 486.907 204.855C485.41 200.918 484.663 196.667 484.663 192.1V189.974C484.663 185.487 485.41 181.275 486.907 177.338C488.404 173.402 490.492 169.938 493.171 166.946C495.927 163.954 499.156 161.631 502.86 159.978C506.638 158.246 510.809 157.38 515.379 157.38C520.187 157.38 524.56 158.403 528.493 160.45C532.435 162.419 535.664 165.529 538.187 169.78C540.705 174.032 542.12 179.543 542.44 186.313L537.715 178.755V136.359H549.057V222.569H540.073V194.58H543.384C543.068 201.744 541.57 207.571 538.892 212.058C536.218 216.467 532.829 219.695 528.731 221.742C524.715 223.71 520.384 224.694 515.736 224.694ZM517.275 214.774C521.13 214.774 524.637 213.908 527.788 212.177C530.938 210.444 533.461 207.964 535.348 204.736C537.243 201.43 538.187 197.572 538.187 193.163V187.731C538.187 183.401 537.202 179.739 535.229 176.748C533.342 173.677 530.778 171.355 527.55 169.78C524.399 168.126 520.933 167.3 517.151 167.3C512.979 167.3 509.28 168.284 506.047 170.252C502.897 172.22 500.419 174.976 498.606 178.519C496.871 182.062 496.005 186.235 496.005 191.038C496.005 195.84 496.912 200.052 498.721 203.673C500.534 207.217 503.052 209.972 506.28 211.94C509.513 213.83 513.176 214.774 517.275 214.774Z" fill="black"></path>
  <path d="M606.646 222.569V203.674H604.76V181.826C604.76 177.496 603.615 174.229 601.33 172.024C599.123 169.82 595.858 168.718 591.522 168.718C589.082 168.718 586.563 168.757 583.962 168.835C581.361 168.914 578.88 168.993 576.522 169.072C574.154 169.15 572.107 169.269 570.377 169.426V159.506C572.107 159.348 573.921 159.231 575.812 159.152C577.781 158.994 579.791 158.915 581.838 158.915C583.88 158.837 585.853 158.798 587.745 158.798C594.201 158.798 599.48 159.585 603.574 161.159C607.672 162.656 610.703 165.135 612.672 168.599C614.641 172.063 615.626 176.748 615.626 182.653V222.569L606.646 222.569ZM585.972 224.222C581.247 224.222 577.149 223.435 573.683 221.86C570.294 220.207 567.657 217.845 565.766 214.774C563.957 211.704 563.05 208.004 563.05 203.674C563.05 199.186 564.035 195.446 566.004 192.455C568.05 189.463 571.008 187.219 574.864 185.723C578.724 184.148 583.372 183.361 588.807 183.361H605.937V191.864H588.335C583.765 191.864 580.263 192.966 577.822 195.171C575.377 197.375 574.154 200.209 574.154 203.674C574.154 207.138 575.377 209.933 577.822 212.058C580.263 214.184 583.765 215.247 588.335 215.247C591.009 215.247 593.574 214.774 596.014 213.83C598.459 212.806 600.465 211.153 602.04 208.87C603.693 206.508 604.6 203.28 604.76 199.186L607.828 203.674C607.434 208.161 606.33 211.94 604.517 215.011C602.786 218.003 600.346 220.285 597.195 221.86C594.123 223.435 590.382 224.222 585.972 224.222Z" fill="black"></path>
  <path d="M238.105 0H0V238H238.105V0Z" fill="#2ED9FF"></path>
  <path fill-rule="evenodd" clip-rule="evenodd" d="M154.552 134.995L111.661 135.159L195.575 51.2812V145.722L154.552 186.726V134.995Z" fill="black"></path>
  <path fill-rule="evenodd" clip-rule="evenodd" d="M83.5562 102.859L126.442 102.848L42.5341 186.726V92.285L83.5562 51.2744V102.859Z" fill="black"></path>
</svg>
