<svg viewBox="0 0 315 174" xmlns="http://www.w3.org/2000/svg" fill-rule="evenodd" clip-rule="evenodd" stroke-linejoin="round" stroke-miterlimit="2"><path d="M146.412 92.268h-14.724l3.06-12.456c1.908-6.876 3.348-12.528 4.32-16.956.144-.792.324-1.548.468-2.268L143.46 79.2l2.952 13.068zm10.584-47.772l-.828-.576-17.1.18-13.068.18-.756.576-25.92 85.284.576.828h21.924l.792-.468 4.644-20.628h23.256l4.464 20.844.828.612c4.14-.252 8.208-.36 12.276-.36h12.24l.828-.972-24.156-85.5zm80.748 41.508c-2.556-2.484-5.076-4.284-7.416-5.436-2.34-1.188-4.14-1.98-5.328-2.34l-6.588-2.808c-1.404-.576-3.096-1.476-4.896-2.7-.828-.576-1.548-1.332-2.16-2.34-.648-.9-.972-1.872-.972-2.952.108-2.376.972-4.248 2.664-5.652.396-.396 1.08-.792 2.16-1.188 1.008-.432 2.592-.648 4.716-.648 4.212 0 8.496 1.224 12.888 3.708 1.908 1.116 3.636 2.412 5.256 3.816l1.044-.504 1.152-19.08-.54-.792c-1.8-.972-4.536-1.98-8.208-3.06-3.708-1.08-8.676-1.656-14.94-1.728-10.584-.072-18.648 2.448-24.228 7.596-1.44 1.476-2.664 2.988-3.636 4.572a20.767 20.767 0 00-2.448 4.896c-1.116 3.456-1.656 6.912-1.656 10.332 0 4.212.648 7.704 1.908 10.476 1.332 2.88 2.952 5.292 4.932 7.236a33.391 33.391 0 006.66 4.824 70.184 70.184 0 006.48 3.384l6.156 2.448c1.98.72 3.888 1.692 5.76 2.952 1.872 1.332 2.844 3.168 2.952 5.544.072 1.152-.54 2.7-1.872 4.68-.792.9-1.98 1.692-3.528 2.34-1.728.756-3.996 1.152-6.768 1.152s-5.832-.468-9.18-1.404c-3.276-.792-6.228-2.052-8.892-3.78a53.555 53.555 0 01-2.7-2.088l-1.08.324c0 6.408-.288 12.996-.828 19.8l.936 1.188c.972.216 2.124.576 3.384 1.008 1.368.468 2.952.972 4.716 1.44 1.872.396 4.032.72 6.444.972 2.34.432 5.004.648 7.992.648 6.3 0 12.276-.864 17.928-2.592 5.544-1.8 10.116-5.292 13.716-10.44.756-.9 1.764-2.808 2.988-5.724 1.152-2.844 1.8-6.3 1.872-10.44.072-2.34-.252-5.148-1.044-8.46-.864-3.168-2.808-6.264-5.796-9.18m75.348 21.168c-.54.324-1.224.792-2.088 1.44-.972.612-2.124 1.224-3.492 1.872-2.52 1.404-5.94 2.124-10.224 2.196-2.376 0-4.788-.396-7.272-1.224-2.52-.828-4.86-2.124-7.056-3.924-2.124-1.872-3.888-4.464-5.219-7.74-1.441-3.204-2.161-7.236-2.161-12.132 0-4.86.684-8.928 2.016-12.204 1.224-3.132 2.845-5.688 4.896-7.596 2.052-1.98 4.285-3.348 6.696-4.14a21.89 21.89 0 017.02-1.152c2.124 0 4.032.216 5.688.648 1.692.432 3.132.936 4.32 1.548 2.376 1.332 4.104 2.628 5.22 3.852l.864-.504c.145-6.984.541-13.716 1.08-20.232l-.504-.9c-2.267-1.044-5.148-2.052-8.531-3.06-3.421-.864-7.705-1.368-12.889-1.512-12.78 0-23.076 3.924-30.78 11.7-7.884 7.884-11.88 19.44-11.988 34.668-.108 5.616.864 11.664 2.844 18.144 2.088 6.444 5.869 12.168 11.413 17.136 2.951 2.484 6.767 4.572 11.483 6.192 4.608 1.656 10.44 2.52 17.496 2.592 4.284-.072 8.028-.504 11.304-1.26a45.82 45.82 0 004.752-1.188c1.585-.36 3.133-.756 4.644-1.296l.612-.72.864-20.736-1.008-.468zm-290.7 1.728H0c32.148 61.956 101.808 80.064 161.136 52.092 1.08-.504 2.16-1.08 3.24-1.656-51.804 18.324-113.4-2.448-141.984-50.436" fill="#00315e" fill-rule="nonzero"/><path d="M118.836 163.188c1.188.144 2.412.252 3.6.36C68.148 149.4 32.544 98.136 40.392 43.704H20.34l-.324.216c-6.372 58.284 36.792 111.816 98.82 119.268" fill="#bf0b2f" fill-rule="nonzero"/><path d="M91.26 147.096c.9.756 1.8 1.476 2.736 2.16-37.224-40.5-37.26-102.816 2.34-145.584.36-.396 3.636-3.276 3.996-3.636L74.016 0C38.268 46.224 45.396 109.871 91.26 147.096" fill="#00315e" fill-rule="nonzero"/></svg>