<svg viewBox="0 0 93.5 53.749998" xml:space="preserve" xmlns="http://www.w3.org/2000/svg">
  <path fill="#0099d4" d="m23.7837 21.9489-12.6845 25.613 1.8295 3.659 12.8064-25.613zM21.1004 16.4604 8.29393 42.0734l1.82947 3.7809 12.8065-25.7349ZM18.4171 11.2159 5.61067 36.7069l1.82949 3.7809L20.2466 14.8749ZM15.6119 5.72739 2.92741 31.3403l1.82949 3.659L17.5634 9.38638ZM12.9287.116932.122178 25.7299l1.829492 3.7809L14.7581 3.77592Z"/>
  <path fill="currentColor" d="M44.1521 14.387h-5.1226v-.4879c1.2196-.1219 1.4636-.1219 1.4636-1.0977V8.53261h-4.7567v4.26879c0 .9758.1219.9758 1.4636 1.0977v.4879h-5.1226v-.4879c1.2196-.1219 1.4636-.1219 1.4636-1.0977V4.14182c0-.97573-.122-.97573-1.4636-1.09769v-.48787H37.2v.48787c-1.2197.12196-1.4636.12196-1.4636 1.09769v3.659h4.7567v-3.659c0-.97573-.122-.97573-1.4636-1.09769v-.48787h5.1226v.48787c-1.2197.12196-1.4636.12196-1.4636 1.09769v8.65958c0 .9758.1219.9758 1.4636 1.0977zM63.7886 14.387h-4.3907v-.4879h.3659c.4878 0 .6098-.2439.6098-.8537V8.77655c0-1.21967-.4879-1.8295-1.5856-1.8295-.7318 0-1.3416.3659-1.7075.97573-.122.24393-.122.48787-.122.97573v4.02489c0 .6098.122.8538.6099.8538h.3659v.4878h-4.3908v-.4878c.9757 0 1.0977-.122 1.0977-.9758V7.55688c0-.7318-.122-.85376-.4879-.85376l-.6098-.12197v-.48786l2.9272-.48787.2439 1.21966.2439-.12196c.9758-.60983 1.7076-1.0977 2.6833-1.0977 1.5856 0 2.5613.97573 2.5613 2.68326v4.51272c0 .8538.122.8538 1.2196.9758v.6098zM74.5217 14.387h-4.2688v-.4879h.3659c.4878 0 .6098-.2439.6098-.8537V8.77655c0-1.21967-.4879-1.8295-1.5856-1.8295-.7318 0-1.3416.3659-1.7075.97573-.122.24393-.122.48787-.122.97573v4.02489c0 .6098.122.8538.6099.8538h.3659v.4878h-4.3908v-.4878c.9757 0 1.0977-.122 1.0977-.9758V7.55688c0-.7318-.122-.85376-.4879-.85376l-.6098-.12197v-.48786l2.9272-.48787.2439 1.21966.2439-.12196c.9758-.60983 1.7076-1.0977 2.6833-1.0977 1.5856 0 2.5613.97573 2.5613 2.68326v4.51272c0 .8538.122.8538 1.2197.9758v.6098zM78.4246 14.509c-.8538 0-2.0734-.244-2.8052-.8538l-.122-2.4393h.4879c.4879 1.5855 1.3416 2.5613 2.5613 2.5613.8537 0 1.3416-.4879 1.3416-1.2197s-.6098-1.3416-1.7075-1.7075c-1.7075-.6099-2.5613-1.46362-2.5613-2.56132 0-1.70753 1.2196-2.68326 3.1711-2.68326.9757 0 1.8295.24393 2.4393.60983v2.1954h-.4878c-.244-1.34163-.9758-2.07343-1.9515-2.07343-.7318 0-1.2197.48786-1.3416 1.21966 0 .85377.9757 1.21967 1.8295 1.58557 1.4636.48786 2.5613 1.21965 2.5613 2.80525 0 1.5855-1.3417 2.5613-3.4151 2.5613zM35.8583 31.9502c-1.0977 0-2.6832-.244-3.537-1.0977l-.2439-2.9272h.4878c.6099 2.0734 1.8295 3.2931 3.1712 3.2931 1.3416 0 2.1954-.7318 2.1954-2.0735 0-1.0977-.6099-1.9514-2.0735-2.5613l-.3659-.1219c-1.5855-.6099-3.2931-1.5856-3.2931-3.659 0-2.1954 1.5856-3.4151 4.1469-3.4151.8538 0 2.1954.244 3.0492.7318v2.6833h-.4879c-.4879-2.3174-1.7075-2.8052-2.5613-2.8052-1.2197 0-1.9515.7318-1.9515 1.9514 0 1.2197 1.0977 1.8295 2.4394 2.4393l.4878.244c1.3417.6098 2.9272 1.4636 2.9272 3.537 0 1.2197-.4878 3.781-4.3908 3.781zM45.4937 31.9502c-2.6833 0-4.0249-1.5856-4.0249-4.3908 0-1.3417.3659-2.3174.9757-3.1712.7318-.8537 1.7076-1.3416 3.0492-1.3416 3.1711 0 3.659 2.1954 3.659 3.537 0 .6099-.244.6099-.7318.6099h-4.5128c0 2.3173.8538 3.537 2.4394 3.537 1.0976 0 1.8294-.4879 2.3173-1.7075l.4879.2439c-.8538 1.8295-1.9515 2.6833-3.659 2.6833zm-.122-8.1718c-1.2196 0-1.7075 1.4636-1.7075 2.8052h2.4393c.4879 0 .6098-.1219.6098-.6098.122-.6098 0-2.1954-1.3416-2.1954zM54.3972 31.7062h-4.5127v-.4878c.9757 0 1.2196-.122 1.2196-.9758v-5.2445c0-.7318-.1219-.8538-.4878-.8538l-.6099-.122v-.4878l3.1712-.4879.1219.122v7.074c0 .8538.122.8538 1.2197.9758v.4878zm-2.3173-9.7573c-.7318 0-1.3417-.6098-1.3417-1.3416 0-.7318.6099-1.3416 1.3417-1.3416.7318 0 1.3416.4878 1.3416 1.3416 0 .8538-.4879 1.3416-1.3416 1.3416zM58.5441 31.9502c-2.0734 0-3.4151-1.5856-3.4151-4.2689 0-1.4636.3659-2.6832 1.2197-3.415.7318-.7318 1.8295-1.0977 3.1711-1.0977.6099 0 1.0977.1219 1.4636.2439v-2.4393c0-.7318-.1219-.8538-.4878-.8538l-.6099-.1219v-.6099l3.1712-.4878.1219.1219v11.2209c0 .8538.122.8538 1.2197.9758v.4878h-3.2931V30.6085h-.122c-.8537.9758-1.7075 1.3417-2.4393 1.3417zm.9757-8.1718c-1.3416 0-2.1954 1.3416-2.1954 3.659 0 2.1954.7318 3.4151 2.0735 3.4151.7318 0 1.3416-.3659 1.5855-.9758.122-.2439.122-.6098.122-.8537v-3.4151c0-.3659 0-.7318-.122-.9757-.2439-.6099-.7318-.8538-1.4636-.8538zM69.1552 31.9502c-2.6833 0-4.0249-1.5856-4.0249-4.3908 0-1.3417.3659-2.3174.9757-3.1712.7318-.8537 1.7075-1.3416 3.0492-1.3416 3.1711 0 3.659 2.1954 3.659 3.537 0 .6099-.244.6099-.7318.6099h-4.5128c0 2.3173.8538 3.537 2.4393 3.537 1.0977 0 1.8295-.4879 2.3174-1.7075l.4879.2439c-.7318 1.8295-1.8295 2.6833-3.659 2.6833zm0-8.1718c-1.2197 0-1.7076 1.4636-1.7076 2.8052h2.4394c.4878 0 .6098-.1219.6098-.6098 0-.6098-.122-2.1954-1.3416-2.1954zM78.0587 31.7062H73.546v-.4878c.9757 0 1.2196-.122 1.2196-.9758v-9.3914c0-.7318-.1219-.8537-.4878-.8537l-.6099-.122v-.4879l3.1712-.4878.1219.1219v11.2209c0 .8538.122.8538 1.2197.9758v.4878zM35.8583 49.3914c-1.0977 0-2.6832-.244-3.537-1.0977l-.2439-2.9272h.4878c.6099 2.0734 1.8295 3.2931 3.1712 3.2931 1.3416 0 2.1954-.7318 2.1954-2.0735 0-1.0977-.6099-1.9514-2.0735-2.5613l-.3659-.1219c-1.5855-.6099-3.2931-1.5856-3.2931-3.659 0-2.1954 1.5856-3.4151 4.1469-3.4151.8538 0 2.1954.244 3.0492.7318v2.6833h-.4879c-.4879-2.3174-1.7075-2.6833-2.5613-2.6833-1.2197 0-1.9515.7318-1.9515 1.9515 0 1.2196 1.0977 1.8295 2.4394 2.4393l.4878.2439c1.3417.6099 2.9272 1.4636 2.9272 3.5371 0 1.0977-.4878 3.659-4.3908 3.659zM43.7862 49.2694c-.7318 0-1.9515-.4879-1.9515-2.0734v-5.7325h-.9757v-.7318h1.0977l1.3416-2.1953h.7318v2.1953h1.8295v.6099h-1.8295v5.1226c0 1.0977.3659 1.7075 1.0977 1.7075.3659 0 .7318-.122.9757-.122l.122.3659c-.7318.6099-1.7075.8538-2.4393.8538zM51.3481 49.1474h-4.5128v-.4878c.9757 0 1.2197-.122 1.2197-.9758v-5.2445c0-.6099-.122-.8538-.4879-.8538l-.6098-.122v-.4878l3.0491-.4879.122.122v7.074c0 .8538.122.8538 1.2197.9758zm-2.3174-9.7573c-.7318 0-1.3416-.6098-1.3416-1.3416 0-.7318.6098-1.3416 1.3416-1.3416.7318 0 1.3416.4878 1.3416 1.3416-.1219.7318-.6098 1.3416-1.3416 1.3416zM56.8366 49.1474h-4.7567v-.4878c.9757 0 1.0977-.122 1.0977-.9758v-6.2203h-1.0977v-.7318h1.0977v-.6098c0-1.3416.2439-2.1954.7318-2.8052.4878-.6098 1.3416-.9757 2.1954-.9757 1.7075 0 2.3173.8537 2.3173 1.4636 0 .6098-.6098.8537-.9757.8537s-.4879-.2439-.6098-.3659c-.4879-.9757-.7318-1.3416-1.0977-1.3416-.122 0-.244 0-.3659.122-.122.1219-.244.4878-.244.8537 0 .4879.122 1.0977.122 1.7076 0 .4878.122.8537.122.9757h1.8295v.7318H55.373v6.2203c0 .8537.1219.8537 1.4636.9757zM60.9834 49.2694c-.7318 0-1.9514-.4879-1.9514-2.0734v-5.7325h-.9758v-.7318h1.0977l1.3417-2.1953h.7318v2.1953h1.7075v.6099h-1.8295v5.1226c0 1.0977.3659 1.7075 1.0977 1.7075.3659 0 .7318-.122.9757-.122l.122.3659c-.7318.6099-1.7075.8538-2.3174.8538zM67.2037 49.2694c-.8538 0-2.4393-.3659-2.4393-2.5613v-4.3908c0-.7318-.122-.8538-.4879-.8538l-.6098-.1219v-.4879l3.1711-.4879.122.122v5.7324c0 1.2197.6098 1.9515 1.5855 1.9515.8538 0 1.4636-.6098 1.7076-.9757.1219-.244.1219-.7318.1219-.9758v-3.7809c0-.7318-.1219-.8538-.4878-.8538l-.6099-.122v-.4878l3.1712-.4879.1219.122v7.074c0 .8538.122.8538 1.0977.9758v.4878h-3.1711l-.122-.9757c-.1219.122-.2439.122-.3659.2439-.7318.3659-1.5855.8538-2.8052.8538zM84.401 49.1474h-4.3908v-.4878h.3659c.4878 0 .6098-.122.6098-.8538V43.537c0-1.2197-.4879-1.8295-1.5856-1.8295-.7318 0-1.3416.3659-1.7075.9757-.1219.2439-.1219.6098-.1219.9757v4.0249c0 .6099.1219.8538.6098.8538h.3659v.4879h-4.3908v-.4879c.9757 0 1.0977-.122 1.0977-.9757v-5.2446c0-.7318-.122-.8538-.4879-.8538l-.6098-.1219v-.4879l2.9272-.4878.2439 1.2196.244-.122c.9757-.6098 1.7075-1.0976 2.6832-1.0976 1.5856 0 2.5613.9757 2.5613 2.6832v4.5128c0 .8537.122.8537 1.2197.9757v.6098zM88.7918 53.2943c-1.0977 0-2.0735-.2439-2.8053-.6098-.6098-.3659-1.0977-1.0977-1.0977-1.8295 0-1.2197 1.3417-1.5856 1.9515-1.7076-.7318-.1219-1.4636-.7318-1.4636-1.4636 0-.6098.6098-1.2196 1.7075-1.5855-.9757-.122-1.9514-.9758-1.9514-2.4394 0-1.3416.9757-2.9272 3.7809-2.9272.8538 0 1.8295.244 2.3174.4879l2.0734-.7318.122.122-.3659 1.2196-1.2197.244h-.1219c.2439.2439.4878.8537.4878 1.4636 0 2.5613-2.8052 2.8052-3.659 2.8052h-.8537c-.244 0-.8538.2439-.8538.7318 0 .2439.122.6098 1.0977.6098h1.5856c1.4636 0 3.2931.4879 3.2931 2.6833 0 1.0977-.4879 1.9515-1.4636 2.4393-.3659.244-1.3417.4879-2.5613.4879zm.2439-4.0249c-.8538 0-1.3416.122-1.5856.2439-.3659.244-.4878.6099-.4878 1.0977 0 1.2197.9757 1.9515 2.3173 1.9515.9758 0 2.1954-.4879 2.1954-1.9515 0-1.2196-1.4636-1.3416-2.4393-1.3416zm-.2439-8.1718c-.7318 0-1.4636.6099-1.4636 2.1954 0 1.2197.6098 2.0735 1.4636 2.0735.8537 0 1.4636-.8538 1.4636-2.0735 0-1.5855-.7318-2.1954-1.4636-2.1954zM53.0556 13.6552c-.2439 0-.3659 0-.6098-.122-.3659-.1219-.6099-.6098-.6099-1.4636V8.04475c0-1.21967-.3659-2.43933-3.0491-2.43933-2.3174 0-3.781 1.0977-3.781 2.07343 0 .60983.8538.97573 1.2197.97573.2439 0 .4879-.24393.6098-.60983.3659-1.21967.8538-1.70753 1.5856-1.70753.3659 0 1.2196.12196 1.2196 1.4636v.85376c-.7318.3659-1.7075.7318-2.6832 1.0977l-.4879.12196c-1.2196.36586-1.7075 1.09766-1.7075 2.07346 0 1.2196.7318 2.4393 2.5613 2.4393.9757 0 1.7075-.4879 2.3173-.9757l.122-.122c.2439.4879.4879.9757 1.2197.9757s1.7075-.2439 2.1954-.4878l-.122-.4879c.122.3659.122.3659 0 .3659zm-3.1711-4.14685v2.43935c0 1.0977-.7318 1.4636-1.3417 1.4636-.8537 0-1.3416-.6099-1.3416-1.5856 0-.8538.2439-1.2197.9757-1.5856.3659-.1219.6099-.24389.9758-.36586.2439-.12196.4878-.24393.7318-.36589z"/>
</svg>
