<svg xmlns="http://www.w3.org/2000/svg" width="138" height="46" viewBox="0 0 138 46" fill="none">
    <g clip-path="url(#clip0_24_3655)">
        <path d="M43.272 26.742C43.0004 26.9486 42.7135 27.1322 42.4075 27.2966C41.9103 27.5644 41.3901 27.7748 40.8393 27.9239L41.937 31.2976C42.2966 32.4107 41.6884 33.6079 40.5792 33.9674L14.0643 42.5813C13.5288 42.7573 12.955 42.7114 12.4501 42.4551C11.9452 42.195 11.5704 41.759 11.3982 41.2235L2.78051 14.7086C2.42096 13.5993 3.02914 12.4021 4.14221 12.0425L30.6533 3.42864C30.8675 3.35597 31.0893 3.32154 31.3074 3.32154C31.6363 3.32154 31.9653 3.40187 32.2674 3.55487C32.7723 3.81114 33.1472 4.25102 33.3193 4.78652L36.2301 13.737C37.0028 13.4922 37.829 13.366 38.7087 13.366C38.7814 13.366 38.8541 13.366 38.9268 13.3736L35.8668 3.96032C35.4728 2.74397 34.6275 1.75329 33.4838 1.16807C32.3439 0.586668 31.0434 0.487218 29.8271 0.881193L3.31219 9.49509C0.799165 10.3136 -0.58166 13.0217 0.233065 15.5348L8.85079 42.0497C9.24476 43.266 10.0901 44.2567 11.2338 44.8381C11.9184 45.1862 12.6605 45.3659 13.4064 45.3659C13.9036 45.3659 14.4047 45.2856 14.8905 45.1288L41.4054 36.5149C43.9184 35.6963 45.2992 32.9882 44.4845 30.4714L43.272 26.742Z" fill="#03ADEE"/>
        <path d="M13.196 15.2288V30.2075H16.0074V24.7645C16.3975 25.2732 16.9024 25.694 17.5221 26.0306C18.1455 26.3672 18.8646 26.5316 19.6794 26.5316C20.6318 26.5316 21.4886 26.2907 22.2612 25.8087C23.0301 25.3268 23.6382 24.6459 24.0896 23.77C24.5371 22.8941 24.7628 21.8843 24.7628 20.7482C24.7628 19.6122 24.5371 18.6101 24.0896 17.7456C23.6421 16.8812 23.0301 16.2156 22.2612 15.749C21.4924 15.2823 20.6318 15.0452 19.6794 15.0452C18.8646 15.0452 18.1379 15.2173 17.4991 15.5577C16.8642 15.8981 16.3631 16.3227 16.0035 16.8314V15.2249H13.1922L13.196 15.2288ZM16.4205 19.0461C16.6959 18.5489 17.0554 18.174 17.5068 17.9101C17.9543 17.65 18.4324 17.5199 18.9411 17.5199C19.4499 17.5199 19.9471 17.6462 20.3985 17.9024C20.846 18.1587 21.2094 18.5297 21.4848 19.0155C21.7602 19.5051 21.8979 20.0827 21.8979 20.7521C21.8979 21.4214 21.7602 22.0258 21.4848 22.5192C21.2094 23.0165 20.8498 23.3951 20.3985 23.6629C19.9471 23.9306 19.4652 24.0645 18.9411 24.0645C18.4171 24.0645 17.9543 23.9345 17.5068 23.6744C17.0592 23.4143 16.6959 23.0356 16.4205 22.5383C16.1451 22.0449 16.0074 21.4597 16.0074 20.7903C16.0074 20.1209 16.1451 19.5395 16.4205 19.0423V19.0461Z" fill="#03ADEE"/>
        <path d="M26.2737 15.2288V26.3557H29.085V20.8133C29.085 19.7843 29.3107 19.0614 29.7582 18.6445C30.2058 18.2314 30.8713 18.021 31.7587 18.021H32.5008V15.0681C31.7511 15.0681 31.0855 15.2364 30.5041 15.5692C29.9227 15.902 29.4484 16.3648 29.0889 16.9538V15.2249H26.2775L26.2737 15.2288Z" fill="#03ADEE"/>
        <path d="M54.0432 16.7741C53.653 16.25 53.1328 15.8331 52.4787 15.5195C51.8208 15.2058 51.1323 15.049 50.4094 15.049C49.457 15.049 48.5964 15.2823 47.8199 15.7528C47.0434 16.2233 46.4314 16.8926 45.9839 17.7609C45.5364 18.633 45.3107 19.6275 45.3107 20.7521C45.3107 21.8766 45.5325 22.8979 45.9839 23.7738C46.4314 24.6497 47.0434 25.3306 47.8199 25.8125C48.5964 26.2945 49.4532 26.5355 50.3903 26.5355C51.2203 26.5355 51.9509 26.3672 52.5782 26.0344C53.2055 25.7016 53.6951 25.2579 54.0432 24.7071V26.3557H56.8966V11.4917H54.0432V16.7741ZM53.6645 22.5498C53.3967 23.0394 53.0372 23.4143 52.582 23.6744C52.1268 23.9345 51.6372 24.0645 51.117 24.0645C50.5968 24.0645 50.1302 23.9306 49.6827 23.6629C49.2351 23.3951 48.8718 23.0088 48.6002 22.5077C48.3248 22.0067 48.1871 21.4214 48.1871 20.7521C48.1871 20.0827 48.3248 19.5051 48.6002 19.0155C48.8756 18.5259 49.2313 18.1549 49.675 17.9024C50.1187 17.65 50.6007 17.5199 51.1209 17.5199C51.6411 17.5199 52.1307 17.65 52.5858 17.9101C53.041 18.1702 53.4006 18.545 53.6683 19.0346C53.9361 19.5242 54.0699 20.1095 54.0699 20.7903C54.0699 21.4712 53.9361 22.0602 53.6683 22.546L53.6645 22.5498Z" fill="#03ADEE"/>
        <path d="M66.7154 21.3526C66.7154 22.2362 66.4935 22.917 66.0537 23.3913C65.61 23.8656 65.0018 24.1028 64.2253 24.1028C63.4488 24.1028 62.8598 23.8656 62.4161 23.3913C61.9762 22.917 61.7544 22.2362 61.7544 21.3526V15.2288H58.943V21.7542C58.943 22.7449 59.1342 23.5979 59.5167 24.3131C59.8992 25.0284 60.4233 25.5716 61.0926 25.9388C61.762 26.306 62.5308 26.4896 63.4029 26.4896C64.0876 26.4896 64.7187 26.3519 65.3001 26.0765C65.8815 25.8011 66.3558 25.4224 66.7154 24.9404V26.348H69.5459V15.2211H66.7154V21.3526Z" fill="#03ADEE"/>
        <path d="M76.5648 17.4358C77.127 17.4358 77.5975 17.5735 77.98 17.8489C78.3625 18.1243 78.6341 18.503 78.7947 18.9849H81.828C81.5181 17.7418 80.9138 16.7741 80.0111 16.0817C79.1084 15.3932 77.9647 15.049 76.5877 15.049C75.5167 15.049 74.5643 15.2861 73.7343 15.7604C72.9042 16.2347 72.254 16.9041 71.7873 17.7686C71.3169 18.633 71.0835 19.639 71.0835 20.7903C71.0835 21.9416 71.3169 22.9476 71.7873 23.8121C72.254 24.6765 72.9042 25.3459 73.7343 25.8202C74.5643 26.2945 75.5167 26.5316 76.5877 26.5316C77.9532 26.5316 79.0931 26.1759 80.0034 25.4683C80.9138 24.7568 81.522 23.8006 81.8318 22.5957H78.7986C78.4505 23.6132 77.7084 24.1219 76.5686 24.1219C75.7653 24.1219 75.1304 23.8312 74.6599 23.2498C74.1894 22.6684 73.9561 21.846 73.9561 20.7903C73.9561 19.7346 74.1894 18.8931 74.6599 18.3117C75.1266 17.7303 75.7653 17.4396 76.5686 17.4396L76.5648 17.4358Z" fill="#03ADEE"/>
        <path d="M101.58 23.682L99.4918 15.2288H96.5198L94.3931 23.7011L92.4232 15.2288H89.5736L92.8478 26.3557H95.9001L97.9274 18.5833L99.9546 26.3557H102.988L106.243 15.2288H103.55L101.58 23.682Z" fill="#03ADEE"/>
        <path d="M115.048 16.8161C114.673 16.3074 114.176 15.8867 113.552 15.5501C112.929 15.2173 112.202 15.049 111.372 15.049C110.424 15.049 109.563 15.2823 108.79 15.7528C108.022 16.2233 107.41 16.8926 106.962 17.7609C106.515 18.633 106.289 19.6275 106.289 20.7521C106.289 21.8766 106.511 22.8979 106.962 23.7738C107.41 24.6497 108.018 25.3306 108.79 25.8125C109.559 26.2945 110.412 26.5355 111.349 26.5355C112.179 26.5355 112.914 26.3633 113.549 26.0229C114.184 25.6825 114.685 25.2503 115.044 24.7262V26.3519H117.875V15.2249H115.044V16.8123L115.048 16.8161ZM114.646 22.5498C114.379 23.0394 114.019 23.4143 113.564 23.6744C113.109 23.9345 112.619 24.0645 112.099 24.0645C111.579 24.0645 111.112 23.9306 110.665 23.6629C110.217 23.3951 109.854 23.0088 109.582 22.5077C109.307 22.0067 109.169 21.4214 109.169 20.7521C109.169 20.0827 109.307 19.5051 109.582 19.0155C109.858 18.5259 110.213 18.1549 110.657 17.9024C111.101 17.65 111.583 17.5199 112.103 17.5199C112.623 17.5199 113.113 17.65 113.568 17.9101C114.023 18.1702 114.383 18.545 114.65 19.0346C114.918 19.5242 115.052 20.1095 115.052 20.7903C115.052 21.4712 114.918 22.0602 114.65 22.546L114.646 22.5498Z" fill="#03ADEE"/>
        <path d="M122.828 16.9538V15.2249H120.017V26.3519H122.828V20.8094C122.828 19.7805 123.054 19.0576 123.501 18.6407C123.949 18.2276 124.614 18.0172 125.502 18.0172H126.244V15.0643C125.494 15.0643 124.829 15.2326 124.247 15.5654C123.666 15.8981 123.191 16.361 122.832 16.95L122.828 16.9538Z" fill="#03ADEE"/>
        <path d="M137.807 20.5493C137.807 19.463 137.577 18.503 137.115 17.6691C136.652 16.8314 136.001 16.185 135.168 15.7298C134.33 15.2747 133.385 15.0452 132.326 15.0452C131.266 15.0452 130.256 15.2785 129.415 15.749C128.569 16.2194 127.915 16.8888 127.445 17.7571C126.974 18.6292 126.741 19.639 126.741 20.7903C126.741 21.9416 126.978 22.9323 127.453 23.8044C127.927 24.6765 128.589 25.3459 129.442 25.824C130.291 26.2983 131.251 26.5355 132.322 26.5355C133.649 26.5355 134.766 26.1912 135.676 25.5027C136.587 24.8142 137.202 23.9345 137.524 22.8635H134.491C134.051 23.7623 133.305 24.2099 132.261 24.2099C131.538 24.2099 130.929 23.9804 130.432 23.5252C129.935 23.07 129.656 22.4427 129.587 21.6395H137.719C137.772 21.3182 137.799 20.9548 137.799 20.5532L137.807 20.5493ZM129.61 19.7461C129.717 18.9964 130.008 18.4112 130.482 17.9904C130.956 17.5697 131.541 17.3593 132.238 17.3593C132.976 17.3593 133.596 17.5773 134.104 18.0134C134.613 18.4494 134.873 19.027 134.888 19.7499H129.606L129.61 19.7461Z" fill="#03ADEE"/>
        <path d="M87.378 11.4917H84.7732V15.2288H83.2929V17.6194H84.7732V26.2486H87.378V17.6194H89.1758V15.2288H87.378V11.4917Z" fill="#03ADEE"/>
        <path d="M35.7979 15.7604C34.9258 16.2347 34.2411 16.9079 33.7401 17.78C33.239 18.6521 32.9865 19.6543 32.9865 20.7941C32.9865 21.934 33.2313 22.9361 33.7209 23.8082C34.2105 24.6803 34.8837 25.3497 35.7405 25.8278C36.5973 26.3021 37.5612 26.5393 38.6322 26.5393C39.7032 26.5393 40.6977 26.3021 41.5737 25.8278C42.4496 25.3535 43.1457 24.6803 43.6621 23.8082C44.1785 22.9361 44.4348 21.934 44.4348 20.7941C44.4348 19.6543 44.1823 18.6521 43.6812 17.78C43.1802 16.9118 42.4917 16.2386 41.6234 15.7604C40.7513 15.2861 39.7836 15.049 38.7126 15.049C37.6416 15.049 36.67 15.2861 35.8017 15.7604H35.7979ZM41.5431 20.7903C41.5431 21.5018 41.4092 22.1023 41.1414 22.5995C40.8737 23.093 40.5141 23.4678 40.0666 23.7126C39.6191 23.9612 39.141 24.0836 38.6322 24.0836C37.829 24.0836 37.1634 23.8006 36.6356 23.2307C36.1077 22.6607 35.8438 21.8498 35.8438 20.7903C35.8438 19.7308 36.1154 18.9199 36.6585 18.35C37.2017 17.78 37.8749 17.497 38.6781 17.497C39.4814 17.497 40.1622 17.78 40.7169 18.35C41.2715 18.9199 41.5507 19.7346 41.5507 20.7903H41.5431Z" fill="#03ADEE"/>
    </g>
    <defs>
        <clipPath id="clip0_24_3655">
            <rect width="137.807" height="44.7219" fill="white" transform="translate(0 0.640625)"/>
        </clipPath>
    </defs>
</svg>
