<svg class="logo logo-society-for-science-century" role="image" version="1.1" xmlns="http://www.w3.org/2000/svg" xmlns:xlink="http://www.w3.org/1999/xlink" viewBox="0 0 223 48">
<path d="M84.9,10.2c-0.1-1.4-0.4-2.4-1.4-2.4c-0.8,0-1.2,0.5-1.2,1.4c0,3.4,5,4.1,5,8.9c0,2.5-1.4,4-3.8,4c-2.6,0-3.5-1.5-3.7-4.4
	l2.3-0.1c0.1,1.7,0.5,2.4,1.5,2.4c0.9,0,1.3-0.7,1.3-1.7c0-3.5-4.9-4.2-4.9-8.9c0-2.3,1.2-3.8,3.5-3.8c2.6,0,3.5,1.8,3.7,4.4
	L84.9,10.2z"></path>
<path d="M88.5,13.9c0-5.9,1.1-8.2,4.1-8.2c3,0,4.1,2.3,4.1,8.2c0,5.5-1,8.3-4.1,8.3S88.5,19.4,88.5,13.9z M94.1,13.9
	c0-4.5-0.4-6-1.5-6c-1.1,0-1.5,1.5-1.5,6c0,4.7,0.5,6.1,1.5,6.1C93.6,20,94.1,18.6,94.1,13.9z"></path>
<path d="M106.4,16.3c-0.1,3.5-1,5.9-3.8,5.9c-3.3,0-4-3-4-8.3c0-4.4,0.5-8.2,4-8.2c2.9,0,3.7,2.2,3.8,5.4H104
	c-0.1-2-0.5-3.1-1.4-3.1c-1.1,0-1.5,1.5-1.5,5.9c0,4.8,0.4,6.1,1.5,6.1c1,0,1.4-1.3,1.5-3.6H106.4z"></path>
<path d="M108.5,22V5.9h2.5V22H108.5z"></path>
<path d="M113.6,22V5.9h6.5v2.3h-4.1v4.4h3.2v2.2h-3.2v5h4.4V22H113.6z"></path>
<path d="M124,22V8.1h-2.4V5.9h7.3v2.3h-2.4V22H124z"></path>
<path d="M132.8,22v-6.6l-3.1-9.5h2.6l1.7,6.4h0l1.8-6.4h2.6l-3.2,9.6V22H132.8z"></path>
<path d="M80.5,43.1V27H87v2.3h-4.1v4.4h3.2v2.2h-3.2v7.2H80.5z"></path>
<path d="M88.2,35.1c0-5.9,1.1-8.2,4.1-8.2c3,0,4.1,2.3,4.1,8.2c0,5.5-1,8.3-4.1,8.3S88.2,40.6,88.2,35.1z M93.8,35.1
	c0-4.5-0.4-6-1.5-6c-1.1,0-1.5,1.5-1.5,6c0,4.7,0.5,6.1,1.5,6.1C93.3,41.2,93.8,39.8,93.8,35.1z"></path>
<path d="M103.8,43.1l-1.7-6.8H101v6.8h-2.4V27h3.2c2.8,0,4.3,1.1,4.3,4.3c0,2-0.7,3.3-1.9,3.9l2.2,8H103.8z M101.8,34.2
	c1.2,0,1.8-0.7,1.8-2.6c0-2.2-0.9-2.4-2-2.4H101v5.1H101.8z"></path>
<path d="M115.8,31.4c-0.1-1.4-0.4-2.4-1.4-2.4c-0.8,0-1.2,0.5-1.2,1.4c0,3.4,5,4.1,5,8.9c0,2.5-1.4,4-3.8,4c-2.6,0-3.5-1.5-3.7-4.4
	l2.3-0.1c0.1,1.7,0.5,2.4,1.5,2.4c0.9,0,1.3-0.7,1.3-1.7c0-3.5-4.9-4.2-4.9-8.9c0-2.3,1.2-3.8,3.5-3.8c2.6,0,3.5,1.8,3.7,4.4
	L115.8,31.4z"></path>
<path d="M127.7,37.5c-0.1,3.5-1,5.9-3.8,5.9c-3.3,0-4-3-4-8.3c0-4.4,0.5-8.2,4-8.2c2.9,0,3.7,2.2,3.8,5.4h-2.3
	c-0.1-2-0.5-3.1-1.4-3.1c-1.1,0-1.5,1.5-1.5,5.9c0,4.8,0.4,6.1,1.5,6.1c1,0,1.4-1.3,1.5-3.6H127.7z"></path>
<path d="M129.9,43.1V27h2.5v16.1H129.9z"></path>
<path d="M135,43.1V27h6.5v2.3h-4.1v4.4h3.2v2.2h-3.2v5h4.4v2.3H135z"></path>
<path d="M149.3,43.1l-3.4-10.8h0v10.8h-2.1V27h2.7l2.8,9.1h0V27h2.1v16.1H149.3z"></path>
<path d="M161.5,37.5c-0.1,3.5-1,5.9-3.8,5.9c-3.3,0-4-3-4-8.3c0-4.4,0.5-8.2,4-8.2c2.9,0,3.7,2.2,3.8,5.4h-2.3
	c-0.1-2-0.5-3.1-1.4-3.1c-1.1,0-1.5,1.5-1.5,5.9c0,4.8,0.4,6.1,1.5,6.1c1,0,1.4-1.3,1.5-3.6H161.5z"></path>
<path d="M163.2,43.1V27h6.5v2.3h-4.1v4.4h3.2v2.2h-3.2v5h4.4v2.3H163.2z"></path>
<path d="M63,6.2C62.9,6,62.8,6,62.6,5.9c-0.2-0.1-0.4,0-0.5,0C62,6,61.9,6,61.8,6.1c-0.1,0-0.1,0.2,0,0.2c0.2,0.2,0.4,0.2,0.6,0.2
	c0.2,0,0.4,0,0.5-0.1C63,6.3,63,6.2,63,6.2L63,6.2z"></path>
<path d="M36.7,15.1c-0.1-0.1-0.2-0.1-0.3,0c-0.1,0.1-0.1,0.2,0,0.3c0.1,0.1,0.1,0.2,0,0.3c-0.1,0.1-0.4,0-0.5,0
	c-0.1,0-0.2,0-0.3,0.1c0,0.1,0,0.2,0,0.3c0.1,0.1,0.2,0.2,0.3,0.3c0.3,0.2,0.6,0.1,0.8,0c0.1-0.1,0.2-0.3,0.2-0.5
	C37,15.5,36.9,15.2,36.7,15.1L36.7,15.1z"></path>
<path d="M23.9,25.5c-0.1,0.1-0.3,0.2-0.3,0.3c0,0.1,0,0.2,0,0.3c-0.1,0-0.2,0-0.2,0.1c-0.1,0.1-0.2,0.2-0.3,0.3c0,0.1,0,0.1,0.1,0.2
	c0.2,0.1,0.5,0,0.7-0.2c0.1-0.1,0.2-0.2,0.2-0.4c0.1-0.2,0.1-0.4,0-0.5C24.1,25.5,24,25.5,23.9,25.5L23.9,25.5z"></path>
<path d="M26.3,28c0,0,0-0.1-0.1-0.1c-0.2-0.1-0.3-0.1-0.5,0c-0.1,0-0.3,0.2-0.3,0.5c0,0.2,0.2,0.3,0.4,0.3c0.1,0,0.2-0.1,0.3-0.1
	c0,0,0-0.1,0-0.1c0,0,0,0-0.1,0c-0.1,0-0.1-0.1-0.1-0.1C26,28.1,26.1,28.1,26.3,28C26.3,28.1,26.3,28.1,26.3,28L26.3,28z"></path>
<path d="M26.5,28.5c-0.1,0-0.1,0-0.1-0.1c0,0-0.1-0.1-0.1-0.2c0-0.1,0-0.1,0.1-0.2c0,0,0.1-0.1,0.2-0.1c0.1,0,0.1,0,0.2,0.1
	c0,0,0.1,0.1,0.1,0.2c0,0.1,0,0.1-0.1,0.2C26.6,28.5,26.6,28.5,26.5,28.5L26.5,28.5z"></path>
<path d="M29.1,27.8c0-0.1-0.1-0.2-0.2-0.2c-0.1,0-0.2-0.1-0.2,0c-0.1,0-0.1,0.1-0.2,0.1c-0.1,0.1-0.2,0.2-0.1,0.3c0,0,0,0.1,0.1,0.1
	c0,0,0.1,0,0.1,0c0.1-0.1,0.1-0.1,0.2-0.1c0.1,0,0.2,0,0.2,0.1c0,0,0,0,0.1,0c0,0,0.1,0,0.1,0C29.1,28,29.1,27.9,29.1,27.8
	L29.1,27.8z"></path>
<path d="M33.8,28.2c0,0,0-0.1,0-0.1c-0.1-0.1-0.3-0.2-0.6-0.3c-0.3-0.1-0.7-0.1-0.9,0c-0.1,0-0.1,0.1-0.1,0.1c0,0.1,0,0.1,0.1,0.1
	c0.2,0,0.3,0,0.4,0.1c0.2,0.1,0.2,0.3,0.3,0.5c0,0.1,0.1,0.1,0.1,0.1c0.1,0,0.1,0,0.1-0.1c0-0.1,0.1-0.3,0.2-0.4c0.1,0,0.1,0,0.2,0
	C33.8,28.3,33.8,28.3,33.8,28.2L33.8,28.2z"></path>
<path d="M31.4,29c-0.1-0.1-0.3-0.2-0.4-0.2c-0.1,0-0.3,0-0.4,0c-0.1,0-0.2,0.1-0.3,0.2c-0.1,0.1-0.1,0.2-0.2,0.2
	c-0.1,0.1-0.1,0.1-0.3,0.1c-0.1,0-0.1,0-0.1,0.1c0,0,0,0.1,0,0.1c0.1,0.1,0.2,0.2,0.3,0.2c0.2,0.1,0.3,0.2,0.5,0.2
	c0.2,0,0.5,0,0.7-0.2c0,0,0.1-0.1,0.1-0.1c0,0,0-0.1-0.1-0.1c0,0-0.1,0-0.1-0.1c0,0,0,0,0-0.1c0,0,0-0.1,0.1-0.1c0,0,0,0,0.1,0
	c0.1,0,0.1,0,0.1,0C31.5,29.1,31.5,29,31.4,29L31.4,29z"></path>
<path d="M32.3,29.1c-0.1-0.1-0.2-0.1-0.4-0.1c-0.2,0-0.3,0.1-0.4,0.2c0,0-0.1,0.1,0,0.1c0,0,0.1,0.1,0.1,0.1c0.1,0,0.2,0,0.3,0
	c0.1,0,0.2,0.1,0.3,0.2c0.1,0.1,0.3,0.1,0.4,0c0.1-0.1,0.1-0.2,0-0.3C32.5,29.2,32.4,29.2,32.3,29.1L32.3,29.1z"></path>
<path d="M28.5,30.1c0,0-0.1,0-0.1,0c-0.1,0.1-0.2,0.1-0.4,0.1c-0.2,0-0.5-0.1-0.7-0.1c-0.2,0-0.4,0.1-0.5,0.2c0,0-0.1,0.1,0,0.1
	c0,0.1,0,0.1,0.1,0.1c0.1,0.1,0.3,0.1,0.4,0.1c0.2,0,0.3,0.1,0.5,0c0,0,0.1,0,0.1-0.1c0-0.1,0-0.1,0.1-0.1c0.1,0,0.1,0,0.2,0
	c0.1,0,0.2,0,0.2,0c0.1,0,0.2-0.1,0.2-0.1c0-0.1,0.1-0.1,0-0.2C28.6,30.2,28.6,30.1,28.5,30.1L28.5,30.1z"></path>
<path d="M35.4,33.3c0-0.1,0-0.4,0-0.7c0-0.2-0.1-0.4-0.1-0.6c-0.1-0.2-0.2-0.4-0.3-0.6c-0.1-0.1-0.2,0-0.2,0.1
	c0.1,0.2,0.1,0.4,0.1,0.6c0,0.5-0.1,0.6-0.1,0.8c0,0,0.1,0.1,0.2,0.2c0.1,0,0.1,0.1,0.1,0.2c0,0.1,0.1,0.1,0.1,0.1
	C35.4,33.4,35.4,33.4,35.4,33.3L35.4,33.3z"></path>
<path d="M34.8,33.4c0-0.1-0.3-0.1-0.3,0c-0.1,0.3-0.2,0.4-0.4,0.6c-0.3,0.2-0.6,0.3-1,0.4c-0.2,0-0.5,0.1-0.8,0.3
	c-0.2,0.1-0.3,0.3-0.3,0.5c0,0.1,0.1,0.3,0.2,0.2c0.2-0.2,0.4-0.3,0.6-0.4c0.4-0.1,0.8,0,1.2-0.1c0.5-0.2,0.7-0.4,0.8-0.9
	C34.9,33.7,34.9,33.5,34.8,33.4L34.8,33.4z"></path>
<path d="M31.7,35.2c-0.1,0-0.3,0-0.4,0c-0.2-0.1-0.2-0.2-0.4-0.3c-0.1,0-0.2,0-0.4,0c-0.1,0-0.2,0.1-0.3,0.2
	c-0.1,0.1-0.1,0.3-0.1,0.4c0,0.1,0.2,0.1,0.2,0c0-0.1,0-0.1,0.1-0.2c0.1,0,0.3,0,0.3,0.2c0,0.2-0.1,0.3-0.3,0.4c-0.1,0-0.2,0-0.4,0
	c-0.3,0-0.5,0-0.6,0.2c-0.1,0.1-0.2,0.3,0,0.5c0.1,0.1,0.1,0.1,0.2,0.2c0,0,0.1,0,0.1-0.1c0-0.1,0-0.2,0.1-0.2
	c0.1-0.1,0.3-0.2,0.6-0.3c0.1,0,0.2,0,0.3,0c0.2,0,0.5,0,0.7-0.1c0.3-0.1,0.5-0.4,0.5-0.7C31.9,35.3,31.8,35.2,31.7,35.2L31.7,35.2z
	"></path>
<path d="M29.4,35.5C29.4,35.5,29.4,35.5,29.4,35.5C29.4,35.5,29.4,35.5,29.4,35.5C29.4,35.5,29.4,35.5,29.4,35.5
	C29.4,35.5,29.4,35.5,29.4,35.5C29.4,35.4,29.4,35.4,29.4,35.5C29.4,35.4,29.4,35.4,29.4,35.5C29.4,35.4,29.4,35.4,29.4,35.5
	C29.4,35.4,29.4,35.4,29.4,35.5C29.4,35.4,29.4,35.4,29.4,35.5C29.4,35.4,29.4,35.4,29.4,35.5C29.4,35.4,29.4,35.4,29.4,35.5
	C29.4,35.4,29.4,35.4,29.4,35.5c-0.3,0.1-0.6,0-0.8-0.1c-0.1-0.1-0.2-0.2-0.3-0.3c0,0,0,0,0,0c0,0,0,0,0,0c0,0,0,0,0,0c0,0,0,0,0,0
	c0,0,0,0,0,0c0,0,0,0,0,0c0,0,0,0,0,0c0,0,0,0,0,0c0,0,0,0,0,0c0,0,0,0,0,0c0,0,0,0,0,0c0,0,0,0,0,0c-0.1,0.1-0.2,0.2-0.2,0.4
	c0,0.1,0,0.2,0.1,0.2c0,0-0.1,0-0.1,0c-0.1,0-0.2,0.1-0.3,0.2c-0.1,0.1-0.1,0.3-0.1,0.5c0,0.2,0.1,0.3,0.3,0.4c0,0,0.1,0,0.1,0
	c0,0,0.1-0.1,0.1-0.1c0-0.2,0.1-0.3,0.2-0.4c0.1-0.1,0.3-0.1,0.4-0.1c0,0,0.1,0,0.1,0c0.1,0,0.2,0,0.3,0c0.1,0,0.2-0.1,0.3-0.2
	c0.1-0.1,0.1-0.1,0.1-0.2C29.5,35.6,29.5,35.6,29.4,35.5L29.4,35.5z"></path>
<path d="M26.8,36.6c-0.1,0.5-0.3,0.6-0.6,0.6c-0.2,0-0.4-0.1-0.6-0.2c-0.1-0.1-0.2,0-0.3,0.2c0,0.1,0,0.3,0.1,0.3
	c0.2,0.1,0.4,0.1,0.5,0.3c0.1,0.1,0,0.2,0,0.3c-0.1,0.2,0.2,0.3,0.3,0.1c0.1-0.2,0.1-0.2,0.3-0.3c0.3-0.2,0.6-0.3,0.7-0.8
	c0-0.2,0-0.3,0-0.5C27.1,36.4,26.9,36.5,26.8,36.6L26.8,36.6z"></path>
<path d="M26.4,36.6c-0.1,0-0.2,0.1-0.3,0c-0.1-0.1-0.1-0.4-0.6-0.5c-0.2,0-0.3,0-0.4,0.1c-0.1,0.1-0.2,0.2-0.3,0.3
	c-0.1,0-0.1,0-0.2,0c0,0,0-0.1,0-0.1c0,0,0,0,0.1,0c0.1,0,0.1-0.1,0.1-0.1c0,0-0.1-0.1-0.1,0c-0.1,0-0.2,0.1-0.2,0.2
	c-0.1,0.1-0.1,0.2-0.1,0.3c0,0.1,0.1,0.2,0.2,0.3c0.1,0.1,0.2,0.1,0.3,0c0.1,0,0.4-0.2,0.5-0.2c0.2-0.1,0.3,0,0.5,0.2
	c0.2,0.1,0.4,0.1,0.5,0C26.6,36.8,26.6,36.6,26.4,36.6L26.4,36.6z"></path>
<path d="M23.7,37.1c-0.1,0.1-0.2,0.2-0.2,0.4c0,0,0,0.1,0.1,0.1c0.1,0,0.1,0,0.1-0.1c0-0.1,0.1-0.1,0.2-0.1c0.1,0,0.1,0.2,0.1,0.2
	c0,0.1-0.1,0.1-0.1,0.1c-0.1,0-0.1,0-0.2,0c0,0-0.1,0.1-0.1,0.1c0,0,0,0.1,0.1,0.1c0.1,0,0.3,0,0.4-0.1c0.3-0.1,0.5-0.5,0.3-0.8
	C24.2,36.9,23.8,36.9,23.7,37.1L23.7,37.1z"></path>
<path d="M21.9,38.2c-0.1,0-0.2-0.1-0.3-0.2c-0.1-0.1-0.1-0.2-0.1-0.3c0-0.1,0.1-0.2,0.1-0.2c0.1-0.1,0.1-0.1,0.2-0.1
	c0.1,0,0.3,0,0.4,0c0.1,0,0.2,0.1,0.2,0.2c0.1,0.1,0.1,0.2,0.1,0.3c0,0.1-0.1,0.1-0.1,0.2c0,0.1-0.1,0.1-0.2,0.1
	C22.2,38.2,22,38.2,21.9,38.2L21.9,38.2z"></path>
<path d="M17.8,37.8C17.8,37.7,17.8,37.7,17.8,37.8c-0.2,0-0.2,0-0.3-0.1c-0.1,0-0.3-0.2-0.4-0.3c-0.2-0.1-0.4-0.1-0.5,0
	c-0.1,0.1-0.2,0.3-0.2,0.5c0,0.1,0.1,0.2,0.2,0.3c0.1,0.1,0.2,0.1,0.3,0.1c0.1,0,0.1,0,0.1-0.1c0,0,0-0.1-0.1-0.1
	c0,0-0.1-0.1-0.1-0.1c0-0.1,0.1-0.1,0.1-0.1c0.1,0,0.2,0.1,0.3,0.2c0.1,0.1,0.2,0.1,0.3,0C17.8,38.1,17.9,37.9,17.8,37.8
	C17.9,37.8,17.9,37.8,17.8,37.8L17.8,37.8z"></path>
<path d="M17.8,38.6c0,0-0.1,0-0.1,0c-0.1,0.1-0.1,0.1-0.2,0.1c-0.2,0-0.4-0.2-0.5-0.2c-0.1-0.1-0.3-0.1-0.5,0
	c-0.3,0.1-0.7,0.3-1.2,0.4c-0.1,0-0.3,0-0.4,0c-0.1,0-0.2-0.1-0.2-0.2c0-0.1,0-0.2,0.1-0.2c0.1,0,0.2-0.1,0.2-0.2
	c0-0.1-0.1-0.2-0.2-0.2c-0.2,0-0.3,0-0.4,0.1c-0.2,0.1-0.3,0.3-0.3,0.5c-0.1,0.2,0,0.5,0.2,0.7c0.3,0.3,0.9,0.3,1.4,0.2
	c0.5-0.1,0.6-0.3,0.9-0.5c0.1-0.1,0.3-0.2,0.4,0c-0.1,0-0.2,0.1-0.2,0.2c0,0.1,0,0.1,0.1,0.2c0.1,0.1,0.2,0.1,0.2,0
	c0-0.1,0.1-0.1,0.2-0.2c0.1,0,0.3,0.1,0.5,0c0.1,0,0.2-0.1,0.2-0.2c0.1-0.1,0.1-0.1,0.1-0.2C17.8,38.7,17.8,38.7,17.8,38.6
	L17.8,38.6z"></path>
<path d="M11.7,38.6c-0.1-0.1-0.3-0.2-0.4-0.3c-0.1-0.2-0.1-0.5,0.1-0.7c0.1,0,0.2,0,0.3,0c0.1,0,0.2,0.2,0.2,0.2
	c0.1,0.1,0.3,0.1,0.4,0.1c0.1,0,0.3,0.1,0.3,0.3c0,0.3-0.4,0.5-0.6,0.5C12,38.7,11.8,38.7,11.7,38.6L11.7,38.6z"></path>
<path d="M9.1,35.4c0,0,0-0.1-0.1-0.1c-0.2-0.1-0.4-0.2-0.5-0.4c-0.1-0.2,0-0.3,0-0.5c0-0.1,0-0.2-0.1-0.2c-0.1,0-0.2,0-0.2,0.1
	c-0.2,0.3-0.1,0.5-0.3,0.5c-0.1,0-0.3,0-0.4-0.1C7.2,34.7,7,35,7,35.3c0,0.2,0.1,0.3,0.2,0.5C7.3,35.9,7.5,36,7.7,36
	c0.1,0,0.2,0,0.2-0.2c0-0.1,0-0.1-0.1-0.2c-0.1,0-0.1-0.1-0.1-0.2c0-0.1,0.1-0.1,0.2-0.1c0.1,0,0.4,0.2,0.5,0.2
	c0.2,0.1,0.5,0.1,0.7-0.1C9.1,35.6,9.1,35.5,9.1,35.4L9.1,35.4z"></path>
<path d="M6.8,34.7c-0.1-0.2-0.2-0.3-0.2-0.5c0-0.2,0.1-0.7,0-1c-0.1-0.4-0.4-0.7-0.7-0.7c-0.2,0-0.5,0-0.6,0.2
	c-0.1,0.1-0.1,0.2-0.1,0.3c0,0.1,0.1,0.1,0.2,0.1c0.2,0,0.3,0,0.4,0.1C6,33.4,6.1,33.6,6,33.8c-0.1,0.4-0.1,0.7,0.1,0.9
	c0.2,0.2,0.3,0.3,0.5,0.3C6.8,35.1,7,34.9,6.8,34.7L6.8,34.7z"></path>
<path d="M8.8,36.6c0-0.2-0.2-0.5-0.6-0.4c-0.1,0-0.3,0.2-0.4,0.2c-0.2,0.1-0.3,0-0.4-0.2c0-0.1-0.1-0.2-0.2-0.2
	c-0.1,0-0.2,0.1-0.2,0.2c0,0.3,0,0.4,0.1,0.6c0.1,0.3,0.6,0.4,0.9,0.5c0.2,0,0.4,0,0.6-0.1C8.7,37.2,8.8,37,8.8,36.6L8.8,36.6z"></path>
<path d="M20.9,27.8c-0.2-0.1-0.3-0.3-0.3-0.6c0-0.1,0-0.2,0.1-0.3c0.1,0,0.2,0,0.3,0c0.1,0.1,0.1,0.2,0.1,0.3c0,0.1,0,0.2,0.1,0.2
	c0.1,0.1,0.1,0.2,0,0.2C21.2,27.9,21,27.9,20.9,27.8L20.9,27.8z"></path>
<path d="M73.3,2.5c-0.1,0.2-0.4,0.5-1,0.3c-0.3-0.1-0.5-0.3-0.7-0.5c-0.3-0.2-0.5-0.3-0.8-0.4c0,0,0,0,0,0c0,0,0,0,0,0
	c0.2-0.2,0.6-0.2,0.9-0.1c0.4,0.1,0.7,0.5,0.9,0.6C72.8,2.4,73.1,2.5,73.3,2.5C73.3,2.4,73.3,2.4,73.3,2.5
	C73.4,2.5,73.4,2.5,73.3,2.5L73.3,2.5z M71.3,6.1c-0.1,0.1-0.1,0.1-0.2,0c0,0-0.1-0.1-0.1-0.1c0-0.2,0-0.4-0.2-0.5
	c-0.2-0.1-0.5-0.1-0.7-0.2c-0.2-0.1-0.4-0.3-0.4-0.5c0,0,0,0,0,0c0,0,0,0,0.1,0c0.1,0.1,0.2,0.1,0.3,0c0.1,0,0.2-0.1,0.3-0.2
	c0.1-0.1,0.1-0.3,0.2-0.4c0.1-0.1,0.2-0.2,0.4-0.1c0,0,0.1,0,0.1,0.1c0,0,0,0.1,0,0.1c-0.1,0.2,0,0.3,0.1,0.5c0,0.1,0.3,0.4,0.3,0.5
	C71.6,5.6,71.5,6,71.3,6.1L71.3,6.1z M56.8,6.1c-0.1,0.2-0.2,0.4-0.5,0.5c-0.2,0.1-0.4,0.1-0.7,0.1c0,0,0,0,0,0
	c0-0.3,0.1-0.6,0.4-0.7C56.2,5.8,56.5,5.8,56.8,6.1C56.8,6,56.8,6.1,56.8,6.1L56.8,6.1z M41.8,10.7c-0.2,0.2-0.5,0.3-1,0.3
	c0,0-0.1,0-0.1,0c-0.1-0.4,0.2-0.8,0.4-1c0.3-0.2,0.6-0.3,1-0.1c0,0,0,0,0,0.1C42.3,10.2,42.1,10.5,41.8,10.7L41.8,10.7z M33.4,8.2
	C33.4,8.2,33.4,8.3,33.4,8.2c-0.1,0.1-0.2,0.1-0.2,0.1c0,0-0.1,0.1-0.1,0.1c0,0,0,0-0.1,0c0,0-0.1,0-0.1,0c0,0-0.1-0.1-0.1-0.1
	c0,0-0.1,0-0.1,0c0,0-0.1,0-0.1-0.1c0,0,0-0.1,0-0.1C32.8,8,32.9,8,33,8c0.1,0,0.3,0,0.4,0.1C33.4,8.1,33.4,8.2,33.4,8.2L33.4,8.2z
	 M32.7,15.6c-0.1,0.3-0.2,0.7-0.4,0.9c-0.1,0.1-0.2,0-0.2-0.1c0-0.2,0-0.4-0.1-0.5c0,0-0.1,0-0.1,0c0,0-0.1,0.1-0.1,0.1
	c0,0.2-0.1,0.3-0.2,0.5c-0.2,0.2-0.3,0.4-0.6,0.5c-0.1,0-0.1,0-0.1-0.1c0-0.6,0.2-1.2,0.6-1.7c0.3-0.4,0.7-0.7,1.1-0.9
	c0,0,0.1,0,0.1,0c0,0,0,0.1,0,0.1C32.8,14.8,32.8,15.2,32.7,15.6L32.7,15.6z M27.7,19.6c-0.2,0.1-0.4,0.2-0.7,0.2
	c-0.3,0-0.7-0.1-0.9-0.1c-0.3,0-0.6,0-0.9,0.1c-0.1,0-0.1,0-0.2-0.1c0-0.1,0-0.1,0.1-0.2c0.2-0.1,0.4-0.2,0.6-0.4
	c0.1-0.1,0.3-0.6,0.5-0.8c0.2-0.2,0.4-0.3,0.7-0.3c0.3,0,0.5,0,0.7,0.1c0,0,0,0,0,0.1c0,0,0,0.1,0,0.1c-0.2,0.1-0.3,0.3-0.4,0.6
	c0,0.1,0.1,0.4,0.4,0.6C27.7,19.5,27.7,19.5,27.7,19.6C27.7,19.5,27.7,19.6,27.7,19.6L27.7,19.6z M23.4,21.1c0,0.2-0.1,0.3-0.1,0.4
	c0,0.3,0.1,0.5-0.1,0.7c0,0-0.1,0-0.1,0c0,0,0,0,0-0.1c0-0.1-0.1-0.2-0.2-0.3c-0.2-0.1-0.3,0.1-0.3,0.2c0,0,0,0.1-0.1,0.1
	c0,0-0.1,0-0.1-0.1c-0.1-0.3,0.2-0.6,0.5-0.7c0.1,0,0.2-0.2,0.3-0.4c0,0,0.1-0.1,0.1,0C23.4,21,23.4,21.1,23.4,21.1L23.4,21.1z
	 M23.2,28.5c0.4-0.1,0.9,0.1,0.9,0.5c0.1,0.5-0.2,0.8-0.4,1c-0.1,0.2-0.1,0.3,0,0.4c0,0,0,0.1,0,0.1c0,0,0,0-0.1,0
	c-0.5,0-0.8-0.4-1-0.9c0-0.1-0.1-0.3-0.2-0.4c0,0-0.1-0.1-0.1,0c0,0,0,0.1,0,0.1c0,0.1,0.1,0.2,0,0.3c-0.1,0.1-0.3,0-0.4,0
	c-0.1,0-0.2-0.2-0.3-0.4c0-0.1-0.1,0-0.1,0c-0.1,0.1,0,0.3,0,0.3c0,0,0,0.1,0,0.1c0,0-0.1,0-0.1,0c-0.1-0.1-0.8-0.8-1-1.7
	c-0.3-0.9-0.1-1.8,0.1-2.5c0-0.1,0.1-0.1,0.1-0.1c0.1,0,0.1,0,0.1,0.1c0.1,0.4,0.3,0.8,0.5,1.1c0.6,0.8,1,0.7,0.9,1.1
	c0,0.1-0.3,0.2-0.4,0.1c-0.1,0-0.1,0-0.1,0.1c0,0.2,0.3,0.5,0.5,0.6C22.5,28.6,22.8,28.6,23.2,28.5L23.2,28.5z M74.4,2.3
	c-0.1-0.2-0.2-0.4-0.3-0.5c-0.2-0.2-0.4-0.4-0.7-0.3c-0.1,0-0.1,0.1-0.1,0.1c0,0.1,0.1,0.1,0.1,0.1c0.2,0,0.2,0.1,0.2,0.2
	c0,0.1-0.2,0.2-0.3,0.1C73,2,72.8,1.7,72.4,1.3c-0.5-0.6-1.4-1.1-2.2-0.8c0-0.1,0-0.2-0.2-0.4c0,0-0.1,0-0.1,0
	c-0.1,0.1-0.2,0.2-0.3,0.3c-0.3,0.1-0.6,0-0.9,0c-0.4,0-0.8,0.2-1.1,0.5c-0.2-0.4-0.6-0.7-1.3-0.6c-0.6,0-1.4,0.5-2,0.5
	c-0.3,0-0.4-0.2-0.3-0.3c0,0,0-0.1,0-0.1c-0.2-0.1-0.5-0.2-0.7-0.1c-0.3,0-0.5,0.2-0.6,0.2c-0.2,0-0.3-0.1-0.3-0.2
	C62.2,0.1,62.1,0,62,0c0,0-0.1,0-0.1,0c0,0,0,0.1,0,0.1c0,0.1-0.1,0.2-0.2,0.1c-0.4,0-0.6,0-0.9,0.3c-0.1,0.1-0.2,0.3-0.3,0.4
	C60.3,1,60.2,1,60.1,1c-0.1-0.1,0-0.2,0-0.2c0,0,0,0,0,0c0,0,0,0,0,0c-0.4-0.1-1-0.2-1.6,0c-0.7,0.2-1.2,0.5-1.5,0.8
	c0-0.2-0.1-0.3-0.1-0.4c0-0.1-0.1,0-0.2,0c-0.2,0.1-0.4,0.2-0.6,0.2c-0.5,0.1-1.5-0.1-2.3-0.1c-0.3,0-0.7,0.2-1,0.4
	C53,1.5,53,1.4,53,1.3c0-0.1-0.1-0.1-0.2,0c-0.3,0.2-0.7,0.3-1.2,0.4c-0.8,0.1-1.9-0.3-2.8,0.4c-0.2,0.2-0.4,0.4-0.6,0.6
	C48.1,2.8,48,3,47.8,3.1c-0.1,0.1-0.2,0.1-0.4,0.1c-0.1,0-0.2,0.1-0.2,0.2c0,0.1,0.1,0.2,0.2,0.2c0.3,0,0.4,0.2,0.4,0.4
	c0,0.1-0.2,0.2-0.2,0.4c0,0.1,0,0.2,0.1,0.2c0,0,0,0,0,0c0,0,0,0,0,0c-0.3,0-0.6,0-0.9-0.1c-0.1,0-0.2-0.2-0.1-0.3
	c0-0.1,0.1-0.1,0.2-0.1c0.1,0,0.1,0.1,0.1,0.1c0,0.1,0.1,0.1,0.2,0.1c0.1,0,0.1-0.1,0.1-0.2c0-0.3-0.2-0.5-0.6-0.6
	c-0.3-0.1-0.7,0.2-1.1,0.3c-0.2,0-0.3,0-0.4,0c0,0,0,0,0,0c0,0,0,0,0,0c0.1,0,0.1,0,0.1-0.1c0-0.1-0.1-0.1-0.1-0.1c0,0-0.1,0-0.1,0
	c-0.3,0-0.7,0.1-1,0.1c-0.9,0.1-1.8,0.3-3,0.7c-1,0.3-2.1,0.6-3.1,1c-0.5,0.2-0.9,0.4-1.4,0.8c-0.1,0.1-0.2,0.2-0.1,0.3
	c0,0.1,0.1,0.1,0.2,0.1c0.1,0,0.2,0,0.2,0.1c0.1,0.1,0,0.3-0.1,0.4c-0.1,0.1-0.4,0.2-0.6,0.1C36.1,7.1,36,7,36,6.8
	c0-0.1,0-0.2,0.1-0.2c0.1,0,0.1,0,0.2,0c0.1,0,0.1,0,0.1-0.1c0,0,0-0.1,0-0.2c-0.2-0.1-0.7-0.1-1,0.3c-0.2,0.3-0.2,0.6-0.1,0.7
	c-0.2,0.1-0.4,0-0.5-0.2c0-0.2,0.2-0.5,0.4-0.6c0,0,0.1-0.1,0-0.2c0,0-0.1-0.1-0.2,0c-0.1,0.1-0.2,0.1-0.3,0.2c-0.1,0-0.2,0-0.3,0
	c-0.1,0-0.2,0-0.2,0c-0.1,0.1-0.1,0.1,0,0.2c0.1,0.2,0.2,0.4,0.1,0.5c-0.1,0.2-0.1,0.3-0.3,0.4c-0.2,0.1-0.4-0.1-0.6-0.1
	c-0.3-0.2-0.8-0.1-1.2,0.1c-0.2,0.1-0.5,0.4-0.6,0.6c-0.1,0.1-0.1,0.2,0,0.3c0.1,0.1,0.2,0.1,0.2,0c0.1-0.1,0.1-0.1,0.2,0
	c0.1,0,0.1,0.2,0.1,0.3C32.2,8.9,32.2,9,32,9c-0.1,0-0.1,0-0.2-0.1c0,0-0.1-0.1-0.2,0c-0.1,0-0.1,0.1-0.1,0.1c0,0.2,0.1,0.3,0.3,0.4
	c-0.4,0-0.7,0-1,0.1c-1.2,0.3-1.9,0.9-2.5,1.2c-0.3,0.2-0.5,0.3-1,0.1C27.2,10.8,27,11,27,11.1c0,0.2-0.1,0.4-0.2,0.6
	c-0.4,0.5-0.9,0.8-1.5,0.8c-0.1,0-0.2,0.1-0.2,0.2c0,0.1,0.1,0.2,0.2,0.2c0.2,0,0.3,0.2,0.3,0.3c0,0.2-0.2,0.3-0.3,0.3
	c-0.1-0.3-0.2-0.5-0.6-0.6c-0.6-0.1-1,0.3-1.4,0.4c-0.1,0-0.3,0-0.3-0.1c0-0.1,0-0.1,0.1-0.2c0.1,0,0.1-0.1,0.1-0.1
	c0-0.1-0.1-0.1-0.1-0.1c-0.1,0-0.3,0-0.4,0.1c-0.2,0.2-0.1,0.4-0.2,0.7c-0.2,0.3-0.6,0.3-0.7,0.7c-0.1,0.3,0.1,0.4,0.2,0.5
	c0,0,0.1,0.1,0,0.1c0,0.1-0.1,0.1-0.2,0.1c-0.1,0-0.2,0-0.2-0.1c-0.1-0.1-0.1-0.2-0.1-0.3c-0.1-0.1-0.1-0.2-0.2-0.2
	c-0.1,0-0.2,0-0.3,0c-0.1,0-0.2,0.1-0.2,0.2c0,0.4-0.2,0.5-0.6,0.7c-0.7,0.4-1.8,0.7-2.5,1.1c-0.5,0.3-0.9,0.4-1.3,0.9
	c-0.1,0.1-0.1,0.2,0,0.3c0,0.1,0.1,0.1,0.2,0.1c0.1,0,0.3,0,0.3,0.1c0.1,0.1,0,0.2-0.1,0.3c-0.2-0.1-0.6-0.2-0.9-0.2
	c-0.3,0-0.5,0-0.8,0c-0.1,0-0.1,0.1-0.1,0.2c0,0.1,0,0.1,0.1,0.2c0.1,0.1,0.1,0.1,0.1,0.2c0,0.1-0.1,0.2-0.1,0.2
	c-0.1,0.1-0.2,0-0.3,0c-0.1,0-0.2,0-0.2,0.1c-0.1,0.1-0.1,0.2,0,0.3c0.1,0.1,0.2,0.2,0.1,0.5c-0.1,0.4-2.6,1.3-5.2,4.1
	c-1.7,1.8-2.9,4.1-3.1,5.2c0,0.2-0.1,0.4,0.1,0.5c0.1,0.1,0.2,0,0.4,0c0.3-0.2,0.6,0.1,0.7,0.4c0.1,0.6-0.8,1.2-0.7,2.4
	c0.1,0.5,0.3,0.9,0.6,1.3C7.6,33.8,8,34,8.2,34c0.1,0,0.1,0,0.1-0.1c0,0,0-0.1,0-0.2c-0.2-0.2-0.2-0.5-0.1-0.7
	c0.1-0.3,0.4-0.4,0.7-0.4c1.5,2.5,2.2,3,4,3.8c1.5,0.7,4.4,0.9,7,0.6c2.9-0.3,5.6-1,8.3-2.3c1.4-0.6,2.2-1,3.1-1.3
	c0.3-0.1,0.5-0.1,0.6-0.2c0-0.1,0-0.1,0-0.2c0,0-0.1,0-0.1,0c0,0-0.1,0-0.1-0.2c0-0.2,0.2-0.2,0.4-0.2c0.3,0.1,0.6,0.5,1.1,0.7
	c0.3,0.1,0.6,0.1,0.8,0c0.3-0.1,0.4-0.2,0.4-0.2c0,0,0.1-0.1,0.1-0.1c0-0.1,0-0.1,0-0.2c0-0.1-0.1-0.3-0.1-0.4
	c0-0.2,0.1-0.5,0.1-0.6c0-0.2-0.1-0.5-0.2-0.6c0,0-0.1,0-0.1,0c0,0-0.1,0.1-0.1,0.1c0.1,0.4,0,0.8-0.1,1c-0.1,0.2-0.4,0.5-0.6,0.4
	c-0.3-0.1-0.2-0.4-0.2-0.5c0.1-0.2,0.4-0.5,0.5-0.6c0.1-0.2,0.1-0.3,0.2-0.5c0-0.1,0-0.2,0-0.3c0-0.1,0-0.1-0.1-0.2
	c0,0-0.1-0.1-0.1-0.1c0,0-0.1,0-0.1,0c-0.1,0.1-0.1,0.1-0.2,0.1c-0.3,0-0.6-0.3-0.8-0.4c-0.4-0.1-0.7,0-0.8,0.3
	c-0.2-0.1-0.8-0.4-1.6-0.2c-0.3,0.1-1.2,0.4-1.9,0.6c-0.4,0.1-0.8,0.2-1.1,0.1c-0.2,0-0.3-0.1-0.3-0.2c0-0.1,0-0.1,0-0.1
	c0,0-0.1-0.1-0.2,0c-0.1,0-0.1,0.1-0.2,0.1c-0.1,0-0.2,0-0.2-0.1c0-0.1,0-0.2,0.1-0.2c0.1,0,0.2,0,0.3-0.1c0.1,0,0.1-0.1,0.2-0.1
	c0-0.1,0.1-0.1,0.1-0.2c0,0,0-0.1,0-0.1c0,0,0,0-0.1,0c0,0,0,0-0.1,0c0,0,0-0.1,0-0.1c0,0,0.1-0.1,0.1-0.1c0.2-0.1,0.5-0.3,0.8-0.4
	c0.2-0.1,0.5-0.2,0.7-0.1c0.2,0.1,0.3,0.3,0.4,0.4c0.3,0.3,0.7,0.3,0.9,0.2c0.1-0.1,0.2-0.2,0.3-0.3c0,0,0-0.1,0-0.1
	c0,0-0.1,0-0.1,0c-0.1,0-0.2,0.1-0.3,0c-0.1,0-0.2-0.1-0.2-0.1c0,0-0.1-0.1-0.1-0.2c0.2,0,0.4-0.1,0.4-0.2c0.1-0.1,0.1-0.3,0.1-0.5
	c0.1-0.2,0.2-0.3,0.3-0.3c0.1-0.1,0.3-0.1,0.5-0.1c0.4-0.1,0.7-0.1,1,0.1c0.1,0.1,0.3,0.2,0.4,0.2c0,0,0.1,0,0.2,0
	c0,0,0.1-0.1,0-0.2c-0.1-0.2-0.3-0.4-0.6-0.6c-0.4-0.3-1-0.5-1.7-0.3c-0.1,0-0.1,0.1-0.1,0.2c0,0.1,0.1,0.1,0.1,0.1
	c0.1,0,0.2,0.1,0.1,0.2c0,0.1-0.2,0.2-0.5,0.1c-0.1,0-0.3,0-0.4,0c-0.1,0-0.2,0.1-0.2,0.2c-0.1-0.1-0.2-0.1-0.3-0.2
	c-0.1,0-0.4,0-0.5-0.1c-0.1-0.1-0.2-0.3-0.3-0.3c-0.1,0-0.1-0.1-0.2-0.1c-0.1,0-0.1,0-0.2,0.1c0,0,0,0.1,0,0.1c0,0,0,0,0.1,0
	c0.1,0,0.1,0,0.1,0.1c0,0.1-0.2,0-0.2,0c-0.1,0-0.1,0-0.2,0c-0.1,0-0.1,0.1-0.2,0.1c0,0.1,0,0.1,0,0.2c0,0,0,0,0,0c0,0,0,0,0,0
	c0.1-0.1,0.3,0,0.3,0.2c0,0.3-0.4,0.4-0.7,0.4c-0.3,0-0.5,0.1-0.7,0.3c0,0-0.1-0.1-0.1-0.2c0-0.1,0.1-0.1,0.2-0.1c0,0,0.1,0,0.1-0.1
	c0,0,0-0.1-0.1-0.1c-0.1,0-0.2-0.1-0.3,0c-0.1,0-0.3,0.1-0.4,0.2c0-0.2-0.1-0.2-0.2-0.3c-0.1-0.2-0.1-0.4,0.1-0.5
	c0.1,0,0.1-0.1,0.1-0.1c0-0.1-0.1-0.1-0.2-0.1c-0.2,0-0.3,0-0.6-0.2c-0.2-0.2-0.6-0.3-1-0.3c0.2-0.1,0.2-0.2,0.2-0.3
	c0,0,0-0.1,0-0.1c0,0-0.1,0-0.1,0c-0.2,0.1-0.7,0.1-0.8-0.5c-0.2-0.6,0.4-1,0.6-1.1c0,0,0,0,0,0c0,0,0,0,0,0c-0.1-0.2-0.1-0.3,0-0.5
	c0.1-0.2,0.2-0.3,0.4-0.4c0,0.1,0.2,0.3,0.5,0.2c0.1,0,0.1-0.1,0.1-0.1c0-0.2,0.1-0.4,0.4-0.5c0.3-0.1,0.5-0.3,0.5-0.8
	c0.4,0.2,0.8,0,1-0.2c0.4-0.3,0.6-0.8,0.8-1.1c0.3-0.4,0.7-0.4,0.9-0.3c0,0,0,0,0,0c0,0,0,0,0,0c0-0.3-0.1-0.6-0.3-0.8
	c0.5,0,0.9-0.3,1.2-0.5c0.3-0.3,0.6-0.7,0.5-1.3c0-0.1-0.1-0.2-0.1-0.2c-0.1,0-0.1,0.1-0.1,0.1c0,0.2-0.1,0.2-0.2,0.1
	c-0.1-0.1-0.1-0.2-0.1-0.3c0-0.1,0.1-0.2,0.2-0.3c0.2-0.2,0.8-0.3,0.9-0.3c0.2-0.1,0.3-0.1,0.5-0.2c0.2-0.1,0.3-0.3,0.5-0.3
	c0.1,0,0.2,0,0.2,0.1c0,0.1-0.1,0.1-0.1,0.1c-0.1,0-0.1,0-0.1,0.1c0,0.1,0,0.1,0.1,0.2c0.2,0.1,0.4,0.1,0.6,0.1
	c0.4-0.1,0.9-0.5,1.2-1.2c0.2-0.4,0.5-0.8,0.9-1c0.2-0.1,0.4-0.1,0.6,0c0.1,0,0.2,0,0.3-0.1c0-0.1,0.1-0.2,0.2-0.3
	c0.2-0.1,0.4-0.1,0.6-0.2c0.4-0.2,0.7-0.5,0.8-0.7c0.1-0.1,0.2-0.3,0.2-0.4c0.1,0.2,0.4,0.2,0.5,0.2c0.2-0.1,0.4-0.3,0.4-0.3
	c0.2-0.1,0.3-0.1,0.4,0c0.1,0.1,0.2,0.1,0.2,0.1c0.1,0,0.1-0.1,0.1-0.2c-0.1-0.2,0-0.3,0.1-0.4c0.3-0.2,0.6-0.3,0.8-0.7
	c0.1-0.2,0.2-0.4,0.2-0.7c0.2,0.2,0.6,0.3,1.1,0.4c0.4,0.1,0.6,0,0.8-0.1c0.1,0,0.1-0.1,0.1-0.2c0-0.1-0.1-0.1-0.1-0.1
	c-0.2,0-0.2-0.2-0.2-0.3c0-0.2,0.1-0.3,0.3-0.3c0.1,0,0.3,0,0.4,0.1c0.1,0.1,0.1,0.3,0.1,0.4c0,0.1,0.1,0.2,0.2,0.2s0.2,0,0.2-0.1
	c0-0.1,0.1-0.3,0.2-0.3c0.2-0.2,0.3-0.3,0.6-0.5c0.3-0.2,0.4-0.4,0.5-0.6c0,0.1,0.1,0.3,0.2,0.3c0,0,0.1,0.1,0.2,0.1
	c0.1,0,0.1-0.1,0.1-0.1c0-0.1,0.1-0.3,0.2-0.4c0.5-0.4,1.4-0.2,1.9-0.3c1-0.1,2.4-1.1,3.9-1c0.6,0,1.2,0.2,1.5-0.2c0,0,0-0.1,0-0.2
	c0,0-0.1-0.1-0.1,0c0,0-0.1,0-0.1,0c-0.1,0-0.3-0.2-0.2-0.3c0.1-0.2,0.4-0.1,0.5,0c0.1,0.1,0.3,0.2,0.4,0.2C52,9.1,52,8.8,52,8.7
	c0.1,0,0.1,0.1,0.1,0.2c0.1,0.1,0.1,0.3,0,0.4c0,0.1,0,0.1,0.1,0.1c0.1,0,0.1,0,0.2,0c0.1-0.1,0.1-0.2,0.2-0.2C52.8,9,53.1,9,53.2,9
	c0.1,0,0.4,0,0.6-0.1c0.1,0,0.1-0.1,0.2-0.1C54,8.9,54,9,54.1,9c0.1,0.1,0.2,0.2,0.3,0.3c0,0,0.1,0,0.1,0c0,0,0.1-0.1,0-0.2
	c-0.1-0.2-0.1-0.4,0.2-0.4c0.3,0,0.2,0.2,0.1,0.3c-0.1,0-0.1,0.1,0,0.2c0,0.1,0.1,0.1,0.2,0c0.2-0.1,0.4-0.3,0.5-0.5
	c0.2-0.2,0.3-0.5,0.3-0.9c0-0.2,0-0.4-0.1-0.6c0.5,0.1,1.1,0,1.3-0.5c0.2,0.2,0.2,0.5-0.1,0.6c0,0-0.1,0.1-0.1,0.1
	c0,0.1,0,0.1,0.1,0.1c0.9,0.3,2-0.1,2.4-0.9c0.1,0.1,0.2,0.1,0.3,0.1c0.2,0,0.3-0.1,0.5-0.2c0.2-0.1,0.4-0.1,0.5-0.1
	c0.2,0,0.5,0.2,0.7,0.2c0.2,0,0.4,0,0.6-0.1c0,0,0.1-0.1,0.1-0.2c0-0.1,0-0.1-0.1-0.1c-0.1,0-0.2-0.1-0.2-0.3c0-0.2,0.2-0.3,0.3-0.3
	c0.3-0.2,0.7-0.1,1,0.1c0.2,0.1,0.4,0.2,0.6,0.3C63.8,6.1,64,6,64.2,6c0.6-0.1,0.9,0.1,1.1,0.2c0.1,0.1,0.2,0,0.2,0
	c0.1-0.1,0-0.2,0-0.2c-0.1-0.1-0.2-0.3-0.2-0.3c0.1-0.2,0.2-0.3,0.5-0.2C66.1,5.5,66.5,6,67,6c0.3,0,0.4,0,0.5-0.1
	c0-0.1,0-0.1,0-0.2c0,0-0.1,0-0.2,0c-0.1,0-0.1,0-0.2,0c-0.1,0-0.1-0.1-0.1-0.2c0-0.1,0.1-0.2,0.2-0.2c0.1,0,0.3,0.1,0.4,0.2
	c0.2,0.2,0.9,1.1,1.3,1.4c0.3,0.2,0.6,0.3,0.8,0.3C69.9,7.2,70,7.1,70,7c0-0.1,0-0.1-0.1-0.1c0,0-0.1,0-0.1-0.1c0,0,0-0.1,0-0.2
	c0-0.2,0.1-0.3,0.3-0.3c0.2,0,0.4,0.1,0.4,0.3c0,0.1-0.1,0.2-0.2,0.2c-0.1,0-0.1,0.1-0.1,0.2c0,0.1,0.1,0.2,0.1,0.2
	c0.2,0,0.3,0.1,0.5,0.1c0.3,0,0.5-0.2,0.7-0.3c0.2-0.1,0.3-0.4,0.5-0.5c0.3-0.2,0.5-0.1,0.8-0.2c0.9-0.2,1.5-1,1.8-1.7
	C74.7,3.8,74.6,2.6,74.4,2.3L74.4,2.3z"></path>
<path d="M11.6,41.9c0.1,0.1,0.2,0.2,0.4,0.3c0.2,0.1,0.4,0,0.5,0c0.1,0,0.2-0.1,0.2-0.1c0.1,0,0.1-0.2,0-0.2
	c-0.2-0.2-0.4-0.2-0.6-0.2c-0.2,0-0.4,0-0.5,0.1C11.6,41.8,11.6,41.9,11.6,41.9L11.6,41.9z"></path>
<path d="M38,33c0.1,0.1,0.2,0.1,0.3,0c0.1-0.1,0.1-0.2,0-0.3c-0.1-0.1-0.1-0.2,0-0.3c0.1-0.1,0.4,0,0.5,0c0.1,0,0.2,0,0.3-0.1
	c0-0.1,0-0.2,0-0.3c-0.1-0.1-0.2-0.2-0.3-0.3c-0.3-0.2-0.6-0.1-0.8,0c-0.1,0.1-0.2,0.3-0.2,0.5C37.6,32.6,37.7,32.8,38,33L38,33z"></path>
<path d="M50.7,22.6c0.1-0.1,0.3-0.2,0.3-0.3c0-0.1,0-0.2,0-0.3c0.1,0,0.2,0,0.2-0.1c0.1-0.1,0.2-0.2,0.3-0.3c0-0.1,0-0.1-0.1-0.2
	c-0.2-0.1-0.5,0-0.7,0.2c-0.1,0.1-0.2,0.2-0.2,0.4c-0.1,0.2-0.1,0.4,0,0.5C50.5,22.5,50.6,22.6,50.7,22.6L50.7,22.6z"></path>
<path d="M48.3,20.1c0,0,0,0.1,0.1,0.1c0.2,0.1,0.3,0.1,0.5,0c0.1,0,0.3-0.2,0.3-0.5c0-0.2-0.2-0.3-0.4-0.3c-0.1,0-0.2,0.1-0.3,0.1
	c0,0,0,0.1,0,0.1c0,0,0,0,0.1,0c0.1,0,0.1,0.1,0.1,0.1C48.6,19.9,48.5,20,48.3,20.1C48.4,20,48.3,20,48.3,20.1L48.3,20.1z"></path>
<path d="M48.1,19.6c0.1,0,0.1,0,0.1,0.1c0,0,0.1,0.1,0.1,0.2c0,0.1,0,0.1-0.1,0.2c0,0-0.1,0.1-0.2,0.1c-0.1,0-0.1,0-0.2-0.1
	c0,0-0.1-0.1-0.1-0.2c0-0.1,0-0.1,0.1-0.2C48,19.6,48,19.6,48.1,19.6L48.1,19.6z"></path>
<path d="M45.5,20.3c0,0.1,0.1,0.2,0.2,0.2c0.1,0,0.2,0.1,0.2,0c0.1,0,0.1-0.1,0.2-0.1c0.1-0.1,0.2-0.2,0.1-0.3c0,0,0-0.1-0.1-0.1
	c0,0-0.1,0-0.1,0c-0.1,0.1-0.1,0.1-0.2,0.1c-0.1,0-0.2,0-0.2-0.1c0,0,0,0-0.1,0c0,0-0.1,0-0.1,0C45.5,20.1,45.5,20.2,45.5,20.3
	L45.5,20.3z"></path>
<path d="M40.8,19.9c0,0,0,0.1,0,0.1c0.1,0.1,0.3,0.2,0.6,0.3c0.3,0.1,0.7,0.1,0.9,0c0.1,0,0.1-0.1,0.1-0.1c0-0.1,0-0.1-0.1-0.1
	c-0.2,0-0.3,0-0.4-0.1c-0.2-0.1-0.2-0.3-0.3-0.5c0-0.1-0.1-0.1-0.1-0.1c-0.1,0-0.1,0-0.1,0.1c0,0.1-0.1,0.3-0.2,0.4
	c-0.1,0-0.1,0-0.2,0C40.8,19.8,40.8,19.8,40.8,19.9L40.8,19.9z"></path>
<path d="M43.2,19.1c0.1,0.1,0.3,0.2,0.4,0.2c0.1,0,0.3,0,0.4,0c0.1,0,0.2-0.1,0.3-0.2c0.1-0.1,0.1-0.2,0.2-0.2
	c0.1-0.1,0.1-0.1,0.3-0.1c0.1,0,0.1,0,0.1-0.1c0,0,0-0.1,0-0.1c-0.1-0.1-0.2-0.2-0.3-0.2c-0.2-0.1-0.3-0.2-0.5-0.2
	c-0.2,0-0.5,0-0.7,0.2c0,0-0.1,0.1-0.1,0.1c0,0,0,0.1,0.1,0.1c0,0,0.1,0,0.1,0.1c0,0,0,0,0,0.1c0,0,0,0.1-0.1,0.1c0,0,0,0-0.1,0
	c-0.1,0-0.1,0-0.1,0C43.1,19,43.1,19.1,43.2,19.1L43.2,19.1z"></path>
<path d="M42.3,18.9c0.1,0.1,0.2,0.1,0.4,0.1c0.2,0,0.3-0.1,0.4-0.2c0,0,0.1-0.1,0-0.1c0,0-0.1-0.1-0.1-0.1c-0.1,0-0.2,0-0.3,0
	c-0.1,0-0.2-0.1-0.3-0.2c-0.1-0.1-0.3-0.1-0.4,0c-0.1,0.1-0.1,0.2,0,0.3C42.1,18.9,42.2,18.9,42.3,18.9L42.3,18.9z"></path>
<path d="M46.1,18c0,0,0.1,0,0.1,0c0.1-0.1,0.2-0.1,0.4-0.1c0.2,0,0.5,0.1,0.7,0.1c0.2,0,0.4-0.1,0.5-0.2c0,0,0.1-0.1,0-0.1
	c0-0.1,0-0.1-0.1-0.1c-0.1-0.1-0.3-0.1-0.4-0.1c-0.2,0-0.3-0.1-0.5,0c0,0-0.1,0-0.1,0.1c0,0.1,0,0.1-0.1,0.1c-0.1,0-0.1,0-0.2,0
	c-0.1,0-0.2,0-0.2,0c-0.1,0-0.2,0.1-0.2,0.1c0,0.1-0.1,0.1,0,0.2C46,17.9,46,18,46.1,18L46.1,18z"></path>
<path d="M39.2,14.8c0,0.1,0,0.4,0,0.7c0,0.2,0.1,0.4,0.1,0.6c0.1,0.2,0.2,0.4,0.3,0.6c0.1,0.1,0.2,0,0.2-0.1
	c-0.1-0.2-0.1-0.4-0.1-0.6c0-0.5,0.1-0.6,0.1-0.8c0,0-0.1-0.1-0.2-0.2c-0.1,0-0.1-0.1-0.1-0.2c0-0.1-0.1-0.1-0.1-0.1
	C39.3,14.7,39.2,14.7,39.2,14.8L39.2,14.8z"></path>
<path d="M39.8,14.7c0,0.1,0.3,0.1,0.3,0c0.1-0.3,0.2-0.4,0.4-0.6c0.3-0.2,0.6-0.3,1-0.4c0.2,0,0.5-0.1,0.8-0.3
	c0.2-0.1,0.3-0.3,0.3-0.5c0-0.1-0.1-0.3-0.2-0.2c-0.2,0.2-0.4,0.3-0.6,0.4c-0.4,0.1-0.8,0-1.2,0.1c-0.5,0.2-0.7,0.4-0.8,0.9
	C39.7,14.4,39.7,14.6,39.8,14.7L39.8,14.7z"></path>
<path d="M42.9,12.9c0.1,0,0.3,0,0.4,0c0.2,0.1,0.2,0.2,0.4,0.3c0.1,0,0.2,0,0.4,0c0.1,0,0.2-0.1,0.3-0.2c0.1-0.1,0.1-0.3,0.1-0.4
	c0-0.1-0.2-0.1-0.2,0c0,0.1,0,0.1-0.1,0.2c-0.1,0-0.3,0-0.3-0.2c0-0.2,0.1-0.3,0.3-0.4c0.1,0,0.2,0,0.4,0c0.3,0,0.5,0,0.6-0.2
	c0.1-0.1,0.2-0.3,0-0.5c-0.1-0.1-0.1-0.1-0.2-0.2c0,0-0.1,0-0.1,0.1c0,0.1,0,0.2-0.1,0.2c-0.1,0.1-0.3,0.2-0.6,0.3
	c-0.1,0-0.2,0-0.3,0c-0.2,0-0.5,0-0.7,0.1c-0.3,0.1-0.5,0.4-0.5,0.7C42.7,12.7,42.8,12.9,42.9,12.9L42.9,12.9z"></path>
<path d="M45.2,12.6C45.2,12.6,45.2,12.6,45.2,12.6C45.2,12.6,45.2,12.6,45.2,12.6C45.2,12.6,45.2,12.6,45.2,12.6
	C45.2,12.6,45.2,12.6,45.2,12.6C45.2,12.6,45.2,12.6,45.2,12.6C45.2,12.7,45.2,12.7,45.2,12.6C45.2,12.7,45.2,12.7,45.2,12.6
	C45.2,12.7,45.2,12.7,45.2,12.6C45.2,12.7,45.2,12.7,45.2,12.6C45.2,12.7,45.2,12.7,45.2,12.6C45.2,12.7,45.2,12.7,45.2,12.6
	C45.2,12.7,45.2,12.7,45.2,12.6c0.3-0.1,0.6,0,0.8,0.1c0.1,0.1,0.2,0.2,0.3,0.3c0,0,0,0,0,0c0,0,0,0,0,0c0,0,0,0,0,0c0,0,0,0,0,0
	c0,0,0,0,0,0c0,0,0,0,0,0c0,0,0,0,0,0c0,0,0,0,0,0c0,0,0,0,0,0c0,0,0,0,0,0c0,0,0,0,0,0c0,0,0,0,0,0c0.1-0.1,0.2-0.2,0.2-0.4
	c0-0.1,0-0.2-0.1-0.2c0,0,0.1,0,0.1,0c0.1,0,0.2-0.1,0.3-0.2C47,12.1,47,12,47,11.8c0-0.2-0.1-0.3-0.3-0.4c0,0-0.1,0-0.1,0
	c0,0-0.1,0.1-0.1,0.1c0,0.2-0.1,0.3-0.2,0.4c-0.1,0.1-0.3,0.1-0.4,0.1c0,0-0.1,0-0.1,0c-0.1,0-0.2,0-0.3,0c-0.1,0-0.2,0.1-0.3,0.2
	c-0.1,0.1-0.1,0.1-0.1,0.2C45.1,12.4,45.1,12.5,45.2,12.6L45.2,12.6z"></path>
<path d="M47.8,11.5c0.1-0.5,0.3-0.6,0.6-0.6c0.2,0,0.4,0.1,0.6,0.2c0.1,0.1,0.2,0,0.3-0.2c0-0.1,0-0.2-0.1-0.3
	c-0.2-0.1-0.4-0.1-0.5-0.3c-0.1-0.1,0-0.2,0-0.3c0.1-0.2-0.2-0.3-0.3-0.1c-0.1,0.2-0.1,0.2-0.3,0.3c-0.3,0.2-0.6,0.3-0.7,0.8
	c0,0.2,0,0.3,0,0.5C47.5,11.6,47.7,11.6,47.8,11.5L47.8,11.5z"></path>
<path d="M48.2,11.5c0.1,0,0.2-0.1,0.3,0c0.1,0.1,0.1,0.4,0.6,0.5c0.2,0,0.3,0,0.4-0.1c0.1-0.1,0.2-0.2,0.3-0.3c0.1,0,0.1,0,0.2,0
	c0,0,0,0.1,0,0.1c0,0,0,0-0.1,0c-0.1,0-0.1,0.1-0.1,0.1c0,0,0.1,0.1,0.1,0c0.1,0,0.2-0.1,0.2-0.2c0.1-0.1,0.1-0.2,0.1-0.3
	c0-0.1-0.1-0.2-0.2-0.3c-0.1-0.1-0.2-0.1-0.3,0c-0.1,0-0.4,0.2-0.5,0.2c-0.2,0.1-0.3,0-0.5-0.2c-0.2-0.1-0.4-0.1-0.5,0
	C48,11.3,48,11.5,48.2,11.5L48.2,11.5z"></path>
<path d="M50.9,11c0.1-0.1,0.2-0.2,0.2-0.4c0,0,0-0.1-0.1-0.1c-0.1,0-0.1,0-0.1,0.1c0,0.1-0.1,0.1-0.2,0.1c-0.1,0-0.1-0.2-0.1-0.2
	c0-0.1,0.1-0.1,0.1-0.1c0.1,0,0.1,0,0.2,0c0,0,0.1-0.1,0.1-0.1c0,0,0-0.1-0.1-0.1c-0.1,0-0.3,0-0.4,0.1c-0.3,0.1-0.5,0.5-0.3,0.8
	C50.4,11.2,50.8,11.2,50.9,11L50.9,11z"></path>
<path d="M52.7,9.9c0.1,0,0.2,0.1,0.3,0.2c0.1,0.1,0.1,0.2,0.1,0.3c0,0.1-0.1,0.2-0.1,0.2c-0.1,0.1-0.1,0.1-0.2,0.1
	c-0.1,0-0.3,0-0.4,0c-0.1,0-0.2-0.1-0.2-0.2C52,10.4,52,10.3,52,10.2c0-0.1,0.1-0.1,0.1-0.2c0-0.1,0.1-0.1,0.2-0.1
	C52.4,9.9,52.6,9.9,52.7,9.9L52.7,9.9z"></path>
<path d="M56.8,10.3C56.8,10.4,56.8,10.4,56.8,10.3c0.2,0,0.2,0,0.3,0.1c0.1,0,0.3,0.2,0.4,0.3c0.2,0.1,0.4,0.1,0.5,0
	c0.1-0.1,0.2-0.3,0.2-0.5c0-0.1-0.1-0.2-0.2-0.3c-0.1-0.1-0.2-0.1-0.3-0.1c-0.1,0-0.1,0-0.1,0.1c0,0,0,0.1,0.1,0.1
	c0,0,0.1,0.1,0.1,0.1c0,0.1-0.1,0.1-0.1,0.1c-0.1,0-0.2-0.1-0.3-0.2c-0.1-0.1-0.2-0.1-0.3,0C56.8,10,56.7,10.1,56.8,10.3
	C56.7,10.3,56.7,10.3,56.8,10.3L56.8,10.3z"></path>
<path d="M56.8,9.5c0,0,0.1,0,0.1,0c0.1-0.1,0.1-0.1,0.2-0.1c0.2,0,0.4,0.2,0.5,0.2c0.1,0.1,0.3,0.1,0.5,0c0.3-0.1,0.7-0.3,1.2-0.4
	c0.1,0,0.3,0,0.4,0c0.1,0,0.2,0.1,0.2,0.2c0,0.1,0,0.2-0.1,0.2c-0.1,0-0.2,0.1-0.2,0.2c0,0.1,0.1,0.2,0.2,0.2c0.2,0,0.3,0,0.4-0.1
	c0.2-0.1,0.3-0.3,0.3-0.5c0.1-0.2,0-0.5-0.2-0.7c-0.3-0.3-0.9-0.3-1.4-0.2c-0.5,0.1-0.6,0.3-0.9,0.5c-0.1,0.1-0.3,0.2-0.4,0
	C57.9,9.2,58,9.1,58,9c0-0.1,0-0.1-0.1-0.2c-0.1-0.1-0.2-0.1-0.2,0c0,0.1-0.1,0.1-0.2,0.2c-0.1,0-0.3-0.1-0.5,0
	C57,9,56.9,9,56.8,9.1c-0.1,0.1-0.1,0.1-0.1,0.2C56.8,9.4,56.8,9.4,56.8,9.5L56.8,9.5z"></path>
<path d="M62.9,9.5c0.1,0.1,0.3,0.2,0.4,0.3c0.1,0.2,0.1,0.5-0.1,0.7c-0.1,0-0.2,0-0.3,0c-0.1,0-0.2-0.2-0.2-0.2
	c-0.1-0.1-0.3-0.1-0.4-0.1c-0.1,0-0.3-0.1-0.3-0.3c0-0.3,0.4-0.5,0.6-0.5C62.6,9.4,62.8,9.4,62.9,9.5L62.9,9.5z"></path>
<path d="M65.5,12.6c0,0,0,0.1,0.1,0.1c0.2,0.1,0.4,0.2,0.5,0.4c0.1,0.2,0,0.3,0,0.5c0,0.1,0,0.2,0.1,0.2c0.1,0,0.2,0,0.2-0.1
	c0.2-0.3,0.1-0.5,0.3-0.5c0.1,0,0.3,0,0.4,0.1c0.4,0,0.6-0.2,0.6-0.6c0-0.2-0.1-0.3-0.2-0.5c-0.1-0.1-0.3-0.2-0.5-0.2
	c-0.1,0-0.2,0-0.2,0.2c0,0.1,0,0.1,0.1,0.2c0.1,0,0.1,0.1,0.1,0.2c0,0.1-0.1,0.1-0.2,0.1c-0.1,0-0.4-0.2-0.5-0.2
	c-0.2-0.1-0.5-0.1-0.7,0.1C65.5,12.5,65.5,12.6,65.5,12.6L65.5,12.6z"></path>
<path d="M67.8,13.4c0.1,0.2,0.2,0.3,0.2,0.5c0,0.2-0.1,0.7,0,1c0.1,0.4,0.4,0.7,0.7,0.7c0.2,0,0.5,0,0.6-0.2
	c0.1-0.1,0.1-0.2,0.1-0.3c0-0.1-0.1-0.1-0.2-0.1c-0.2,0-0.3,0-0.4-0.1c-0.1-0.1-0.1-0.3-0.1-0.6c0.1-0.4,0.1-0.7-0.1-0.9
	c-0.2-0.2-0.3-0.3-0.5-0.3C67.9,12.9,67.7,13.2,67.8,13.4L67.8,13.4z"></path>
<path d="M65.8,11.4c0,0.2,0.2,0.5,0.6,0.4c0.1,0,0.3-0.2,0.4-0.2c0.2-0.1,0.3,0,0.4,0.2c0,0.1,0.1,0.2,0.2,0.2
	c0.1,0,0.2-0.1,0.2-0.2c0-0.3,0-0.4-0.1-0.6c-0.1-0.3-0.6-0.4-0.9-0.5c-0.2,0-0.4,0-0.6,0.1C65.9,10.9,65.8,11.1,65.8,11.4
	L65.8,11.4z"></path>
<path d="M53.7,20.3c0.2,0.1,0.3,0.3,0.3,0.6c0,0.1,0,0.2-0.1,0.3c-0.1,0-0.2,0-0.3,0c-0.1-0.1-0.1-0.2-0.1-0.3c0-0.1,0-0.2-0.1-0.2
	c-0.1-0.1-0.1-0.2,0-0.2C53.4,20.2,53.6,20.2,53.7,20.3L53.7,20.3z"></path>
<path d="M1.3,45.6c0.1-0.2,0.4-0.5,1-0.3c0.3,0.1,0.5,0.3,0.7,0.5c0.3,0.2,0.5,0.3,0.8,0.4c0,0,0,0,0,0c0,0,0,0,0,0
	c-0.2,0.2-0.6,0.2-0.9,0.1c-0.4-0.1-0.7-0.5-0.9-0.6C1.8,45.6,1.5,45.6,1.3,45.6C1.3,45.7,1.3,45.7,1.3,45.6
	C1.3,45.6,1.3,45.6,1.3,45.6L1.3,45.6z M3.3,41.9c0.1-0.1,0.1-0.1,0.2,0c0,0,0.1,0.1,0.1,0.1c0,0.2,0,0.4,0.2,0.5
	c0.2,0.1,0.5,0.1,0.7,0.2c0.2,0.1,0.4,0.3,0.4,0.5c0,0,0,0,0,0c0,0,0,0-0.1,0c-0.1-0.1-0.2-0.1-0.3,0c-0.1,0-0.2,0.1-0.3,0.2
	c-0.1,0.1-0.1,0.3-0.2,0.4c-0.1,0.1-0.2,0.2-0.4,0.1c0,0-0.1,0-0.1-0.1c0,0,0-0.1,0-0.1c0.1-0.2,0-0.3-0.1-0.5
	c0-0.1-0.3-0.4-0.3-0.5C3,42.5,3.1,42.1,3.3,41.9L3.3,41.9z M17.8,42c0.1-0.2,0.2-0.4,0.5-0.5c0.2-0.1,0.4-0.1,0.7-0.1c0,0,0,0,0,0
	c0,0.3-0.1,0.6-0.4,0.7C18.4,42.3,18.1,42.3,17.8,42C17.8,42.1,17.8,42,17.8,42L17.8,42z M32.8,37.4c0.2-0.2,0.5-0.3,1-0.3
	c0,0,0.1,0,0.1,0c0.1,0.4-0.2,0.8-0.4,1c-0.3,0.2-0.6,0.3-1,0.1c0,0,0,0,0-0.1C32.3,37.9,32.6,37.6,32.8,37.4L32.8,37.4z M41.2,39.9
	C41.2,39.9,41.2,39.8,41.2,39.9c0.1-0.1,0.2-0.1,0.2-0.1c0,0,0.1-0.1,0.1-0.1c0,0,0,0,0.1,0c0,0,0.1,0,0.1,0c0,0,0.1,0.1,0.1,0.1
	c0,0,0.1,0,0.1,0c0,0,0.1,0,0.1,0.1c0,0,0,0.1,0,0.1c-0.1,0.1-0.2,0.1-0.3,0.1c-0.1,0-0.3,0-0.4-0.1C41.2,40,41.2,39.9,41.2,39.9
	L41.2,39.9z M41.9,32.5c0.1-0.3,0.2-0.7,0.4-0.9c0.1-0.1,0.2,0,0.2,0.1c0,0.2,0,0.4,0.1,0.5c0,0,0.1,0,0.1,0c0,0,0.1-0.1,0.1-0.1
	c0-0.2,0.1-0.3,0.2-0.5c0.2-0.2,0.3-0.4,0.6-0.5c0.1,0,0.1,0,0.1,0.1c0,0.6-0.2,1.2-0.6,1.7c-0.3,0.4-0.7,0.7-1.1,0.9
	c0,0-0.1,0-0.1,0c0,0,0-0.1,0-0.1C41.8,33.3,41.8,32.9,41.9,32.5L41.9,32.5z M47,28.5c0.2-0.1,0.4-0.2,0.7-0.2
	c0.3,0,0.7,0.1,0.9,0.1c0.3,0,0.6,0,0.9-0.1c0.1,0,0.1,0,0.2,0.1c0,0.1,0,0.1-0.1,0.2c-0.2,0.1-0.4,0.2-0.6,0.4
	c-0.1,0.1-0.3,0.6-0.5,0.8c-0.2,0.2-0.4,0.3-0.7,0.3c-0.3,0-0.5,0-0.7-0.1c0,0,0,0,0-0.1c0,0,0-0.1,0-0.1c0.2-0.1,0.3-0.3,0.4-0.6
	c0-0.1-0.1-0.4-0.4-0.6C46.9,28.6,46.9,28.6,47,28.5C46.9,28.5,46.9,28.5,47,28.5L47,28.5z M51.2,26.9c0-0.2,0.1-0.3,0.1-0.4
	c0-0.3-0.1-0.5,0.1-0.7c0,0,0.1,0,0.1,0c0,0,0,0,0,0.1c0,0.1,0.1,0.2,0.2,0.3c0.2,0.1,0.3-0.1,0.3-0.2c0,0,0-0.1,0.1-0.1
	c0,0,0.1,0,0.1,0.1c0.1,0.3-0.2,0.6-0.5,0.7c-0.1,0-0.2,0.2-0.3,0.4c0,0-0.1,0.1-0.1,0C51.2,27.1,51.2,27,51.2,26.9L51.2,26.9z
	 M51.4,19.6c-0.4,0.1-0.9-0.1-0.9-0.5c-0.1-0.5,0.2-0.8,0.4-1c0.1-0.2,0.1-0.3,0-0.4c0,0,0-0.1,0-0.1c0,0,0,0,0.1,0
	c0.5,0,0.8,0.4,1,0.9c0,0.1,0.1,0.3,0.2,0.4c0,0,0.1,0.1,0.1,0c0,0,0-0.1,0-0.1c0-0.1-0.1-0.2,0-0.3c0.1-0.1,0.3,0,0.4,0
	c0.1,0,0.2,0.2,0.3,0.4c0,0.1,0.1,0,0.1,0c0.1-0.1,0-0.3,0-0.3c0,0,0-0.1,0-0.1c0,0,0.1,0,0.1,0c0.1,0.1,0.8,0.8,1,1.7
	c0.3,0.9,0.1,1.8-0.1,2.5c0,0.1-0.1,0.1-0.1,0.1c-0.1,0-0.1,0-0.1-0.1c-0.1-0.4-0.3-0.8-0.5-1.1c-0.6-0.8-1-0.7-0.9-1.1
	c0-0.1,0.3-0.2,0.4-0.1c0.1,0,0.1,0,0.1-0.1c0-0.2-0.3-0.5-0.5-0.6C52.1,19.5,51.8,19.4,51.4,19.6L51.4,19.6z M0.2,45.8
	c0.1,0.2,0.2,0.4,0.3,0.5c0.2,0.2,0.4,0.4,0.7,0.3c0.1,0,0.1-0.1,0.1-0.1c0-0.1-0.1-0.1-0.1-0.1C1,46.4,1,46.2,1,46.1
	C1,46,1.2,46,1.3,46c0.4,0.1,0.6,0.3,0.9,0.8c0.5,0.6,1.4,1.1,2.2,0.8c0,0.1,0,0.2,0.2,0.4c0,0,0.1,0,0.1,0c0.1-0.1,0.2-0.2,0.3-0.3
	c0.3-0.1,0.6,0,0.9,0c0.4,0,0.8-0.2,1.1-0.5c0.2,0.4,0.6,0.7,1.3,0.6c0.6,0,1.4-0.5,2-0.5c0.3,0,0.4,0.2,0.3,0.3c0,0,0,0.1,0,0.1
	c0.2,0.1,0.5,0.2,0.7,0.1c0.3,0,0.5-0.2,0.6-0.2c0.2,0,0.3,0.1,0.3,0.2c0,0.1,0.1,0.2,0.2,0.2c0,0,0.1,0,0.1,0c0,0,0-0.1,0-0.1
	c0-0.1,0.1-0.2,0.2-0.1c0.4,0,0.6,0,0.9-0.3c0.1-0.1,0.2-0.3,0.3-0.4c0.1-0.1,0.2-0.1,0.3,0c0.1,0.1,0,0.2,0,0.2c0,0,0,0,0,0
	c0,0,0,0,0,0c0.4,0.1,1,0.2,1.6,0c0.7-0.2,1.2-0.5,1.5-0.8c0,0.2,0.1,0.3,0.1,0.4c0,0.1,0.1,0,0.2,0c0.2-0.1,0.4-0.2,0.6-0.2
	c0.5-0.1,1.5,0.1,2.3,0.1c0.3,0,0.7-0.2,1-0.4c-0.1,0.1-0.1,0.2,0,0.3c0,0.1,0.1,0.1,0.2,0c0.3-0.2,0.7-0.3,1.2-0.4
	c0.8-0.1,1.9,0.3,2.8-0.4c0.2-0.2,0.4-0.4,0.6-0.6c0.1-0.2,0.2-0.3,0.4-0.4c0.1-0.1,0.2-0.1,0.4-0.1c0.1,0,0.2-0.1,0.2-0.2
	c0-0.1-0.1-0.2-0.2-0.2c-0.3,0-0.4-0.2-0.4-0.4c0-0.1,0.2-0.2,0.2-0.4c0-0.1,0-0.2-0.1-0.2c0,0,0,0,0,0c0,0,0,0,0,0
	c0.3,0,0.6,0,0.9,0.1c0.1,0,0.2,0.2,0.1,0.3c0,0.1-0.1,0.1-0.2,0.1c-0.1,0-0.1-0.1-0.1-0.1c0-0.1-0.1-0.1-0.2-0.1
	c-0.1,0-0.1,0.1-0.1,0.2c0,0.3,0.2,0.5,0.6,0.6c0.3,0.1,0.7-0.2,1.1-0.3c0.2,0,0.3,0,0.4,0c0,0,0,0,0,0c0,0,0,0,0,0
	c-0.1,0-0.1,0-0.1,0.1c0,0.1,0.1,0.1,0.1,0.1c0,0,0.1,0,0.1,0c0.3,0,0.7-0.1,1-0.1c0.9-0.1,1.8-0.3,3-0.7c1-0.3,2.1-0.6,3.1-1
	c0.5-0.2,0.9-0.4,1.4-0.8c0.1-0.1,0.2-0.2,0.1-0.3c0-0.1-0.1-0.1-0.2-0.1c-0.1,0-0.2,0-0.2-0.1c-0.1-0.1,0-0.3,0.1-0.4
	c0.1-0.1,0.4-0.2,0.6-0.1c0.2,0,0.3,0.1,0.3,0.3c0,0.1,0,0.2-0.1,0.2c-0.1,0-0.1,0-0.2,0c-0.1,0-0.1,0-0.1,0.1c0,0,0,0.1,0,0.2
	c0.2,0.1,0.7,0.1,1-0.3c0.2-0.3,0.2-0.6,0.1-0.7c0.2-0.1,0.4,0,0.5,0.2c0,0.2-0.2,0.5-0.4,0.6c0,0-0.1,0.1,0,0.2c0,0,0.1,0.1,0.2,0
	c0.1-0.1,0.2-0.1,0.3-0.2c0.1,0,0.2,0,0.3,0c0.1,0,0.2,0,0.2,0c0.1-0.1,0.1-0.1,0-0.2c-0.1-0.2-0.2-0.4-0.1-0.5
	c0.1-0.2,0.1-0.3,0.3-0.4c0.2-0.1,0.4,0.1,0.6,0.1c0.3,0.2,0.8,0.1,1.2-0.1c0.2-0.1,0.5-0.4,0.6-0.6c0.1-0.1,0.1-0.2,0-0.3
	c-0.1-0.1-0.2-0.1-0.2,0c-0.1,0.1-0.1,0.1-0.2,0c-0.1,0-0.1-0.2-0.1-0.3c0-0.2,0.1-0.2,0.2-0.2c0.1,0,0.1,0,0.2,0.1
	c0,0,0.1,0.1,0.2,0c0.1,0,0.1-0.1,0.1-0.1c0-0.2-0.1-0.3-0.3-0.4c0.4,0,0.7,0,1-0.1c1.2-0.3,1.9-0.9,2.5-1.2c0.3-0.2,0.5-0.3,1-0.1
	c0.1,0.1,0.3-0.1,0.3-0.2c0-0.2,0.1-0.4,0.2-0.6c0.4-0.5,0.9-0.8,1.5-0.8c0.1,0,0.2-0.1,0.2-0.2c0-0.1-0.1-0.2-0.2-0.2
	c-0.2,0-0.3-0.2-0.3-0.3c0-0.2,0.2-0.3,0.3-0.3c0.1,0.3,0.2,0.5,0.6,0.6c0.6,0.1,1-0.3,1.4-0.4c0.1,0,0.3,0,0.3,0.1
	c0,0.1,0,0.1-0.1,0.2c-0.1,0-0.1,0.1-0.1,0.1c0,0.1,0.1,0.1,0.1,0.1c0.1,0,0.3,0,0.4-0.1c0.2-0.2,0.1-0.4,0.2-0.7
	c0.2-0.3,0.6-0.3,0.7-0.7c0.1-0.3-0.1-0.4-0.2-0.5c0,0-0.1-0.1,0-0.1c0-0.1,0.1-0.1,0.2-0.1c0.1,0,0.2,0,0.2,0.1
	c0.1,0.1,0.1,0.2,0.1,0.3c0.1,0.1,0.1,0.2,0.2,0.2c0.1,0,0.2,0,0.3,0c0.1,0,0.2-0.1,0.2-0.2c0-0.4,0.2-0.5,0.6-0.7
	c0.7-0.4,1.8-0.7,2.5-1.1c0.5-0.3,0.9-0.4,1.3-0.9c0.1-0.1,0.1-0.2,0-0.3c0-0.1-0.1-0.1-0.2-0.1c-0.1,0-0.3,0-0.3-0.1
	c-0.1-0.1,0-0.2,0.1-0.3c0.2,0.1,0.6,0.2,0.9,0.2c0.3,0,0.5,0,0.8,0c0.1,0,0.1-0.1,0.1-0.2c0-0.1,0-0.1-0.1-0.2
	c-0.1-0.1-0.1-0.1-0.1-0.2c0-0.1,0.1-0.2,0.1-0.2c0.1-0.1,0.2,0,0.3,0c0.1,0,0.2,0,0.2-0.1c0.1-0.1,0.1-0.2,0-0.3
	c-0.1-0.1-0.2-0.2-0.1-0.5c0.1-0.4,2.6-1.3,5.2-4.1c1.7-1.8,2.9-4.1,3.1-5.2c0-0.2,0.1-0.4-0.1-0.5c-0.1-0.1-0.2,0-0.4,0
	c-0.3,0.2-0.6-0.1-0.7-0.4c-0.1-0.6,0.8-1.2,0.7-2.4c-0.1-0.5-0.3-0.9-0.6-1.3c-0.2-0.2-0.6-0.4-0.8-0.5c-0.1,0-0.1,0-0.1,0.1
	c0,0,0,0.1,0,0.2c0.2,0.2,0.2,0.5,0.1,0.7c-0.1,0.3-0.4,0.4-0.7,0.4c-1.5-2.5-2.2-3-4-3.8c-1.5-0.7-4.4-0.9-7-0.6
	c-2.9,0.3-5.6,1-8.3,2.3c-1.4,0.6-2.2,1-3.1,1.3c-0.3,0.1-0.5,0.1-0.6,0.2c0,0.1,0,0.1,0,0.2c0,0,0.1,0,0.1,0c0,0,0.1,0,0.1,0.2
	c0,0.2-0.2,0.2-0.4,0.2c-0.3-0.1-0.6-0.5-1.1-0.7c-0.3-0.1-0.6-0.1-0.8,0c-0.3,0.1-0.4,0.2-0.4,0.2c0,0-0.1,0.1-0.1,0.1
	c0,0.1,0,0.1,0,0.2c0,0.1,0.1,0.3,0.1,0.4c0,0.2-0.1,0.5-0.1,0.6c0,0.2,0.1,0.5,0.2,0.6c0,0,0.1,0,0.1,0c0,0,0.1-0.1,0.1-0.1
	c-0.1-0.4,0-0.8,0.1-1c0.1-0.2,0.4-0.5,0.6-0.4c0.3,0.1,0.2,0.4,0.2,0.5C41.4,16,41,16.4,41,16.5c-0.1,0.2-0.1,0.3-0.2,0.5
	c0,0.1,0,0.2,0,0.3c0,0.1,0,0.1,0.1,0.2c0,0,0.1,0.1,0.1,0.1c0,0,0.1,0,0.1,0c0.1-0.1,0.1-0.1,0.2-0.1c0.3,0,0.6,0.3,0.8,0.4
	c0.4,0.1,0.7,0,0.8-0.3c0.2,0.1,0.8,0.4,1.6,0.2c0.3-0.1,1.2-0.4,1.9-0.6c0.4-0.1,0.8-0.2,1.1-0.1c0.2,0,0.3,0.1,0.3,0.2
	c0,0.1,0,0.1,0,0.1c0,0,0.1,0.1,0.2,0c0.1,0,0.1-0.1,0.2-0.1c0.1,0,0.2,0,0.2,0.1c0,0.1,0,0.2-0.1,0.2c-0.1,0-0.2,0-0.3,0.1
	c-0.1,0-0.1,0.1-0.2,0.1c0,0.1-0.1,0.1-0.1,0.2c0,0,0,0.1,0,0.1c0,0,0,0,0.1,0c0,0,0,0,0.1,0c0,0,0,0.1,0,0.1c0,0-0.1,0.1-0.1,0.1
	c-0.2,0.1-0.5,0.3-0.8,0.4c-0.2,0.1-0.5,0.2-0.7,0.1c-0.2-0.1-0.3-0.3-0.4-0.4c-0.3-0.3-0.7-0.3-0.9-0.2c-0.1,0.1-0.2,0.2-0.3,0.3
	c0,0,0,0.1,0,0.1c0,0,0.1,0,0.1,0c0.1,0,0.2-0.1,0.3,0c0.1,0,0.2,0.1,0.2,0.1c0,0,0.1,0.1,0.1,0.2c-0.2,0-0.4,0.1-0.4,0.2
	c-0.1,0.1-0.1,0.3-0.1,0.5c-0.1,0.2-0.2,0.3-0.3,0.3c-0.1,0.1-0.3,0.1-0.5,0.1c-0.4,0.1-0.7,0.1-1-0.1c-0.1-0.1-0.3-0.2-0.4-0.2
	c0,0-0.1,0-0.2,0c0,0-0.1,0.1,0,0.2c0.1,0.2,0.3,0.4,0.6,0.6c0.4,0.3,1,0.5,1.7,0.3c0.1,0,0.1-0.1,0.1-0.2c0-0.1-0.1-0.1-0.1-0.1
	c-0.1,0-0.2-0.1-0.1-0.2c0-0.1,0.2-0.2,0.5-0.1c0.1,0,0.3,0,0.4,0c0.1,0,0.2-0.1,0.2-0.2c0.1,0.1,0.2,0.1,0.3,0.2
	c0.1,0,0.4,0,0.5,0.1c0.1,0.1,0.2,0.3,0.3,0.3c0.1,0,0.1,0.1,0.2,0.1c0.1,0,0.1,0,0.2-0.1c0,0,0-0.1,0-0.1c0,0,0,0-0.1,0
	c-0.1,0-0.1,0-0.1-0.1c0-0.1,0.2,0,0.2,0c0.1,0,0.1,0,0.2,0c0.1,0,0.1-0.1,0.2-0.1c0-0.1,0-0.1,0-0.2c0,0,0,0,0,0c0,0,0,0,0,0
	c-0.1,0.1-0.3,0-0.3-0.2c0-0.3,0.4-0.4,0.7-0.4c0.3,0,0.5-0.1,0.7-0.3c0,0,0.1,0.1,0.1,0.2c0,0.1-0.1,0.1-0.2,0.1c0,0-0.1,0-0.1,0.1
	c0,0,0,0.1,0.1,0.1c0.1,0,0.2,0.1,0.3,0c0.1,0,0.3-0.1,0.4-0.2c0,0.2,0.1,0.2,0.2,0.3c0.1,0.2,0.1,0.4-0.1,0.5
	c-0.1,0-0.1,0.1-0.1,0.1c0,0.1,0.1,0.1,0.2,0.1c0.2,0,0.3,0,0.6,0.2c0.2,0.2,0.6,0.3,1,0.3c-0.2,0.1-0.2,0.2-0.2,0.3
	c0,0,0,0.1,0,0.1c0,0,0.1,0,0.1,0c0.2-0.1,0.7-0.1,0.8,0.5c0.2,0.6-0.4,1-0.6,1.1c0,0,0,0,0,0c0,0,0,0,0,0c0.1,0.2,0.1,0.3,0,0.5
	c-0.1,0.2-0.2,0.3-0.4,0.4c0-0.1-0.2-0.3-0.5-0.2c-0.1,0-0.1,0.1-0.1,0.1c0,0.2-0.1,0.4-0.4,0.5c-0.3,0.1-0.5,0.3-0.5,0.8
	c-0.4-0.2-0.8,0-1,0.2c-0.4,0.3-0.6,0.8-0.8,1.1c-0.3,0.4-0.7,0.4-0.9,0.3c0,0,0,0,0,0c0,0,0,0,0,0c0,0.3,0.1,0.6,0.3,0.8
	c-0.5,0-0.9,0.3-1.2,0.5c-0.3,0.3-0.6,0.7-0.5,1.3c0,0.1,0.1,0.2,0.1,0.2c0.1,0,0.1-0.1,0.1-0.1c0-0.2,0.1-0.2,0.2-0.1
	c0.1,0.1,0.1,0.2,0.1,0.3c0,0.1-0.1,0.2-0.2,0.3c-0.2,0.2-0.8,0.3-0.9,0.3c-0.2,0.1-0.3,0.1-0.5,0.2c-0.2,0.1-0.3,0.3-0.5,0.3
	c-0.1,0-0.2,0-0.2-0.1c0-0.1,0.1-0.1,0.1-0.1c0.1,0,0.1,0,0.1-0.1c0-0.1,0-0.1-0.1-0.2c-0.2-0.1-0.4-0.1-0.6-0.1
	c-0.4,0.1-0.9,0.5-1.2,1.2c-0.2,0.4-0.5,0.8-0.9,1c-0.2,0.1-0.4,0.1-0.6,0c-0.1,0-0.2,0-0.3,0.1c0,0.1-0.1,0.2-0.2,0.3
	c-0.2,0.1-0.4,0.1-0.6,0.2c-0.4,0.2-0.7,0.5-0.8,0.7c-0.1,0.1-0.2,0.3-0.2,0.4c-0.1-0.2-0.4-0.2-0.5-0.2c-0.2,0.1-0.4,0.3-0.4,0.3
	c-0.2,0.1-0.3,0.1-0.4,0c-0.1-0.1-0.2-0.1-0.2-0.1c-0.1,0-0.1,0.1-0.1,0.2c0.1,0.2,0,0.3-0.1,0.4c-0.3,0.2-0.6,0.3-0.8,0.7
	c-0.1,0.2-0.2,0.4-0.2,0.7c-0.2-0.2-0.6-0.3-1.1-0.4c-0.4-0.1-0.6,0-0.8,0.1c-0.1,0-0.1,0.1-0.1,0.2c0,0.1,0.1,0.1,0.1,0.1
	c0.2,0,0.2,0.2,0.2,0.3c0,0.2-0.1,0.3-0.3,0.3c-0.1,0-0.3,0-0.4-0.1c-0.1-0.1-0.1-0.3-0.1-0.4c0-0.1-0.1-0.2-0.2-0.2
	c-0.1,0-0.2,0-0.2,0.1c0,0.1-0.1,0.3-0.2,0.3c-0.2,0.2-0.3,0.3-0.6,0.5c-0.3,0.2-0.4,0.4-0.5,0.6c0-0.1-0.1-0.3-0.2-0.3
	c0,0-0.1-0.1-0.2-0.1c-0.1,0-0.1,0.1-0.1,0.1c0,0.1-0.1,0.3-0.2,0.4c-0.5,0.4-1.4,0.2-1.9,0.3c-1,0.1-2.4,1.1-3.9,1
	c-0.6,0-1.2-0.2-1.5,0.2c0,0,0,0.1,0,0.2c0,0,0.1,0.1,0.1,0c0,0,0.1,0,0.1,0c0.1,0,0.3,0.2,0.2,0.3c-0.1,0.2-0.4,0.1-0.5,0
	c-0.1-0.1-0.3-0.2-0.4-0.2c-0.3,0-0.3,0.3-0.3,0.4c-0.1,0-0.1-0.1-0.1-0.2c-0.1-0.1-0.1-0.3,0-0.4c0-0.1,0-0.1-0.1-0.1
	c-0.1,0-0.1,0-0.2,0c-0.1,0.1-0.1,0.2-0.2,0.2c-0.2,0.1-0.5,0.1-0.5,0.1c-0.1,0-0.4,0-0.6,0.1c-0.1,0-0.1,0.1-0.2,0.1
	c0-0.1,0-0.2-0.1-0.2c-0.1-0.1-0.2-0.2-0.3-0.3c0,0-0.1,0-0.1,0c0,0-0.1,0.1,0,0.2c0.1,0.2,0.1,0.4-0.2,0.4c-0.3,0-0.2-0.2-0.1-0.3
	c0.1,0,0.1-0.1,0-0.2c0-0.1-0.1-0.1-0.2,0c-0.2,0.1-0.4,0.3-0.5,0.5c-0.2,0.2-0.3,0.5-0.3,0.9c0,0.2,0,0.4,0.1,0.6
	c-0.5-0.1-1.1,0-1.3,0.5c-0.2-0.2-0.2-0.5,0.1-0.6c0,0,0.1-0.1,0.1-0.1c0-0.1,0-0.1-0.1-0.1c-0.9-0.3-2,0.1-2.4,0.9
	c-0.1-0.1-0.2-0.1-0.3-0.1c-0.2,0-0.3,0.1-0.5,0.2c-0.2,0.1-0.4,0.1-0.5,0.1c-0.2,0-0.5-0.2-0.7-0.2c-0.2,0-0.4,0-0.6,0.1
	c0,0-0.1,0.1-0.1,0.2c0,0.1,0,0.1,0.1,0.1c0.1,0,0.2,0.1,0.2,0.3c0,0.2-0.2,0.3-0.3,0.3c-0.3,0.2-0.7,0.1-1-0.1
	c-0.2-0.1-0.4-0.2-0.6-0.3c-0.2,0-0.5,0.1-0.6,0.1c-0.6,0.1-0.9-0.1-1.1-0.2c-0.1-0.1-0.2,0-0.2,0c-0.1,0.1,0,0.2,0,0.2
	c0.1,0.1,0.2,0.3,0.2,0.3c-0.1,0.2-0.2,0.3-0.5,0.2c-0.4-0.1-0.7-0.6-1.3-0.7c-0.3,0-0.4,0-0.5,0.1c0,0.1,0,0.1,0,0.2
	c0,0,0.1,0,0.2,0c0.1,0,0.1,0,0.2,0c0.1,0,0.1,0.1,0.1,0.2c0,0.1-0.1,0.2-0.2,0.2c-0.1,0-0.3-0.1-0.4-0.2c-0.2-0.2-0.9-1.1-1.3-1.4
	c-0.3-0.2-0.6-0.3-0.8-0.3c-0.1,0-0.1,0.1-0.1,0.2c0,0.1,0,0.1,0.1,0.1c0,0,0.1,0,0.1,0.1c0,0,0,0.1,0,0.2c0,0.2-0.1,0.3-0.3,0.3
	c-0.2,0-0.4-0.1-0.4-0.3c0-0.1,0.1-0.2,0.2-0.2c0.1,0,0.1-0.1,0.1-0.2c0-0.1-0.1-0.2-0.1-0.2c-0.2,0-0.3-0.1-0.5-0.1
	c-0.3,0-0.5,0.2-0.7,0.3c-0.2,0.1-0.3,0.4-0.5,0.5c-0.3,0.2-0.5,0.1-0.8,0.2c-0.9,0.2-1.5,1-1.8,1.7C-0.1,44.3,0,45.4,0.2,45.8
	L0.2,45.8z"></path>
</svg>