<svg id="Ebene_1" data-name="Ebene 1" xmlns="http://www.w3.org/2000/svg" width="236.8568" height="78.7414" viewBox="0 0 236.8568 78.7414"><defs><style>.cls-1{fill:#575756;}.cls-2{fill:#ab1545;}</style></defs><title>wrs_logo_v1</title><polygon id="polygon4" class="cls-1" points="0 0 45.454 78.741 52.768 66.165 14.559 0 0 0"/><polygon id="polygon6" class="cls-1" points="90.908 0 52.768 66.165 60.013 78.741 105.467 0 90.908 0"/><polygon id="polygon8" class="cls-2" points="58.236 0 81.886 40.874 105.467 0 58.236 0"/><polygon id="polygon10" class="cls-1" points="120.026 0 81.886 66.165 89.131 78.741 134.585 0 120.026 0"/><polygon id="polygon12" class="cls-2" points="29.118 0 74.572 78.741 81.886 66.165 43.677 0 29.118 0"/><path class="cls-2" d="M134.2779,48.5851l-3.2515-16.7486v-.05a.1966.1966,0,0,1,.2221-.2222h1.3046a.2369.2369,0,0,1,.2717.2222L135.14,44.7436c.0156.0325.0326.0481.0495.0481s.0326-.0156.05-.0481l1.995-12.9566a.2412.2412,0,0,1,.2462-.2222h1.132a.2239.2239,0,0,1,.2476.2222l2.0927,12.9566c.017.0325.0325.0481.0495.0481s.0326-.0156.0495-.0481l2.1182-12.9566a.2411.2411,0,0,1,.2462-.2222h1.306a.2248.2248,0,0,1,.1839.075.2212.2212,0,0,1,.0368.1967l-3.0534,16.7486a.2361.2361,0,0,1-.2717.2222H140.41a.24.24,0,0,1-.2462-.2222L138.0954,35.58c-.0169-.0325-.0368-.0495-.0622-.0495s-.0368.017-.0368.0495l-2.0191,13.0047a.2227.2227,0,0,1-.2462.2222h-1.1829A.2527.2527,0,0,1,134.2779,48.5851Z" transform="translate(-1.1432 -0.65)"/><path class="cls-2" d="M154.6955,37.267A4.2453,4.2453,0,0,1,155.73,40.26v8.3015a.2176.2176,0,0,1-.2462.2462h-1.2565a.2176.2176,0,0,1-.2462-.2462v-.7386a.0588.0588,0,0,0-.0367-.0623c-.0241-.0085-.0538.0043-.0864.0368a3.2054,3.2054,0,0,1-2.7336,1.207,3.7242,3.7242,0,0,1-2.3531-.7754,3.29,3.29,0,0,1-.9975-2.7464,3.7083,3.7083,0,0,1,1.207-3.0662,4.905,4.905,0,0,1,3.1779-.9735h1.7248a.0867.0867,0,0,0,.0976-.099v-.9608a3.1528,3.1528,0,0,0-.5659-1.97,1.8258,1.8258,0,0,0-1.5282-.7386,1.7954,1.7954,0,0,0-1.2677.4924,2.0024,2.0024,0,0,0-.6283,1.2565.2176.2176,0,0,1-.2462.2462l-1.3795-.0255a.2223.2223,0,0,1-.184-.0735.1843.1843,0,0,1-.0382-.1727,3.328,3.328,0,0,1,1.1829-2.3516,3.8932,3.8932,0,0,1,2.6106-.9A3.5748,3.5748,0,0,1,154.6955,37.267Zm-1.4532,9.5579a2.2916,2.2916,0,0,0,.7386-1.8111V42.9452a.0873.0873,0,0,0-.0976-.0991h-1.7488a2.67,2.67,0,0,0-1.872.6283,2.3841,2.3841,0,0,0-.69,1.8592,2.2009,2.2009,0,0,0,.5292,1.6144,1.8869,1.8869,0,0,0,1.3923.5292A2.5571,2.5571,0,0,0,153.2423,46.8249Z" transform="translate(-1.1432 -0.65)"/><path class="cls-2" d="M159.7935,48.5611V31.811a.2186.2186,0,0,1,.2476-.2462h1.2551a.2182.2182,0,0,1,.2462.2462v16.75a.2176.2176,0,0,1-.2462.2462h-1.2551A.2181.2181,0,0,1,159.7935,48.5611Z" transform="translate(-1.1432 -0.65)"/><path class="cls-2" d="M170.015,37.6491h-1.8719a.0873.0873,0,0,0-.0977.099v7.5374a2.3493,2.3493,0,0,0,.3934,1.5635,1.4911,1.4911,0,0,0,1.2069.4061h.2462a.2182.2182,0,0,1,.2462.2462v1.06a.2176.2176,0,0,1-.2462.2462h-.6155a3.3589,3.3589,0,0,1-2.2044-.6283,3.0028,3.0028,0,0,1-.7514-2.3771V37.7481a.0872.0872,0,0,0-.0976-.099h-.9607a.2176.2176,0,0,1-.2462-.2462v-.8122a.2176.2176,0,0,1,.2462-.2462h.9607a.0873.0873,0,0,0,.0976-.099V33.4863a.2176.2176,0,0,1,.2462-.2462h1.2324a.2176.2176,0,0,1,.2462.2462v2.7592a.0873.0873,0,0,0,.0977.099h1.8719a.2186.2186,0,0,1,.2476.2462v.8122A.2186.2186,0,0,1,170.015,37.6491Z" transform="translate(-1.1432 -0.65)"/><path class="cls-2" d="M181.1251,43.2409h-5.6159a.0867.0867,0,0,0-.099.0976v1.7984a2.4546,2.4546,0,0,0,.5787,1.688,1.9321,1.9321,0,0,0,1.5154.6523,1.9831,1.9831,0,0,0,1.3428-.48,2.2578,2.2578,0,0,0,.7258-1.2452.2766.2766,0,0,1,.2717-.2207l1.231.05a.2368.2368,0,0,1,.1726.0736.2057.2057,0,0,1,.05.1967,3.5278,3.5278,0,0,1-1.1943,2.3035,3.8731,3.8731,0,0,1-2.5992.849,3.8,3.8,0,0,1-2.7959-1.0344,3.6709,3.6709,0,0,1-1.0471-2.7336v-5.32a3.6864,3.6864,0,0,1,1.0471-2.7223,4.2885,4.2885,0,0,1,5.6159,0,3.6867,3.6867,0,0,1,1.047,2.7223v3.0789A.2176.2176,0,0,1,181.1251,43.2409Zm-5.1362-4.9141a2.4908,2.4908,0,0,0-.5787,1.7121v1.65a.0872.0872,0,0,0,.099.0991h4.04a.0877.0877,0,0,0,.099-.0991v-1.65a2.4577,2.4577,0,0,0-.5914-1.7121,1.9975,1.9975,0,0,0-1.5522-.6523A1.9321,1.9321,0,0,0,175.9889,38.3268Z" transform="translate(-1.1432 -0.65)"/><path class="cls-2" d="M190.7057,36.4917a.2661.2661,0,0,1,.1231.32l-.2957,1.282c-.0156.1471-.1147.1966-.2958.1471a1.6355,1.6355,0,0,0-.7386-.1471,1.3837,1.3837,0,0,0-.2957.024,1.8137,1.8137,0,0,0-1.4531.924,3.8349,3.8349,0,0,0-.566,2.1309v7.3888a.2176.2176,0,0,1-.2462.2462h-1.2565a.2176.2176,0,0,1-.2462-.2462v-11.97a.2176.2176,0,0,1,.2462-.2462h1.2565a.2176.2176,0,0,1,.2462.2462v1.4772c0,.05.0127.0736.0368.0736a.1348.1348,0,0,0,.0863-.0481,2.4539,2.4539,0,0,1,2.34-1.872A1.9849,1.9849,0,0,1,190.7057,36.4917Z" transform="translate(-1.1432 -0.65)"/><path class="cls-2" d="M207.3821,48.6106,204.8692,41a.098.098,0,0,0-.099-.0749H202.628a.0877.0877,0,0,0-.0991.099v7.5374a.2176.2176,0,0,1-.2462.2462h-1.2565a.2176.2176,0,0,1-.2462-.2462V31.811a.2182.2182,0,0,1,.2462-.2462h4.0652a3.6139,3.6139,0,0,1,2.9062,1.3188,5.1576,5.1576,0,0,1,1.1079,3.4354,5.2935,5.2935,0,0,1-.689,2.7592,3.755,3.755,0,0,1-1.872,1.6257.0888.0888,0,0,0-.0736.1231l2.6842,7.71.0254.0977c0,.1146-.075.1726-.2221.1726h-1.2805A.2866.2866,0,0,1,207.3821,48.6106Zm-4.8532-15.42v6.2328a.0867.0867,0,0,0,.0991.0976h2.2172a2.2083,2.2083,0,0,0,1.8224-.8744,3.6519,3.6519,0,0,0,.6891-2.3276,3.7093,3.7093,0,0,0-.6891-2.34,2.2,2.2,0,0,0-1.8224-.8857H202.628A.0867.0867,0,0,0,202.5289,33.1906Z" transform="translate(-1.1432 -0.65)"/><path class="cls-2" d="M220.0925,43.2409h-5.6159a.0867.0867,0,0,0-.099.0976v1.7984a2.4546,2.4546,0,0,0,.5787,1.688,1.9321,1.9321,0,0,0,1.5154.6523,1.983,1.983,0,0,0,1.3428-.48,2.2578,2.2578,0,0,0,.7258-1.2452.2766.2766,0,0,1,.2717-.2207l1.231.05a.2368.2368,0,0,1,.1726.0736.2057.2057,0,0,1,.05.1967,3.5282,3.5282,0,0,1-1.1942,2.3035,3.8735,3.8735,0,0,1-2.5993.849,3.8,3.8,0,0,1-2.7959-1.0344,3.6709,3.6709,0,0,1-1.0471-2.7336v-5.32a3.6864,3.6864,0,0,1,1.0471-2.7223,4.2885,4.2885,0,0,1,5.6159,0,3.6867,3.6867,0,0,1,1.047,2.7223v3.0789A.2176.2176,0,0,1,220.0925,43.2409Zm-5.1362-4.9141a2.4908,2.4908,0,0,0-.5787,1.7121v1.65a.0872.0872,0,0,0,.099.0991h4.04a.0877.0877,0,0,0,.099-.0991v-1.65a2.4577,2.4577,0,0,0-.5914-1.7121,1.9975,1.9975,0,0,0-1.5522-.6523A1.9321,1.9321,0,0,0,214.9563,38.3268Z" transform="translate(-1.1432 -0.65)"/><path class="cls-2" d="M224.4633,33.683a1.374,1.374,0,0,1,.9975-2.3644,1.3179,1.3179,0,0,1,.9735.3821,1.4768,1.4768,0,0,1,0,1.9823,1.2955,1.2955,0,0,1-.9735.3948A1.3256,1.3256,0,0,1,224.4633,33.683Zm.1358,14.8781v-11.97a.2176.2176,0,0,1,.2462-.2462h1.2565a.2176.2176,0,0,1,.2462.2462v11.97a.2176.2176,0,0,1-.2462.2462h-1.2565A.2176.2176,0,0,1,224.5991,48.5611Z" transform="translate(-1.1432 -0.65)"/><path class="cls-2" d="M231.5337,48.0559a2.9068,2.9068,0,0,1-1.0216-2.3275v-.1727a.2176.2176,0,0,1,.2462-.2462H231.94a.2176.2176,0,0,1,.2462.2462v.1486a1.7536,1.7536,0,0,0,.58,1.33,2.1253,2.1253,0,0,0,1.514.5419,1.9353,1.9353,0,0,0,1.4291-.5419,1.8738,1.8738,0,0,0,.5419-1.38,1.6629,1.6629,0,0,0-.3452-1.0711,2.62,2.62,0,0,0-.8009-.6778q-.4563-.2462-1.3668-.6409a11.4649,11.4649,0,0,1-1.589-.7754,3.4133,3.4133,0,0,1-1.0838-1.0839,3.6893,3.6893,0,0,1,.5179-4.2731,4.241,4.241,0,0,1,5.2833.0241,3.2711,3.2711,0,0,1,.9848,2.4874v.0736a.218.218,0,0,1-.2462.2476h-1.1333a.218.218,0,0,1-.2462-.2476v-.1471a1.85,1.85,0,0,0-.5533-1.38,1.9768,1.9768,0,0,0-1.4418-.5419,1.871,1.871,0,0,0-1.4163.5546,1.9045,1.9045,0,0,0-.5292,1.3669,1.5584,1.5584,0,0,0,.32.9975,2.5821,2.5821,0,0,0,.7882.665q.4691.2589,1.3059.6282a14.724,14.724,0,0,1,1.6626.8377,3.7968,3.7968,0,0,1,1.1461,1.1079A3.0553,3.0553,0,0,1,238,45.5812a3.122,3.122,0,0,1-1.01,2.438,3.9312,3.9312,0,0,1-2.7336.9112A4.046,4.046,0,0,1,231.5337,48.0559Z" transform="translate(-1.1432 -0.65)"/><path class="cls-1" d="M132.48,72.4283a4.4166,4.4166,0,0,1-1.1333-3.1525V68.71a.2176.2176,0,0,1,.2462-.2462h1.2069a.2176.2176,0,0,1,.2462.2462v.4924a3.1893,3.1893,0,0,0,.665,2.1054,2.14,2.14,0,0,0,1.7248.8009,2.2254,2.2254,0,0,0,1.7234-.7641,2.8943,2.8943,0,0,0,.69-2.0191,2.9413,2.9413,0,0,0-.3325-1.4418,3.8479,3.8479,0,0,0-.8617-1.0584q-.5306-.4563-1.7616-1.3923a24.4953,24.4953,0,0,1-1.9455-1.5635,5.2822,5.2822,0,0,1-1.17-1.5635,4.7342,4.7342,0,0,1-.4556-2.1436A4.1383,4.1383,0,0,1,132.43,57.12a4.2741,4.2741,0,0,1,5.8748.0991,4.5986,4.5986,0,0,1,1.1207,3.2388v.6155a.2176.2176,0,0,1-.2462.2462h-1.2324a.2176.2176,0,0,1-.2462-.2462v-.64a3.2346,3.2346,0,0,0-.6523-2.1068,2.13,2.13,0,0,0-1.7362-.8009,2.1052,2.1052,0,0,0-1.6257.7033,2.8336,2.8336,0,0,0-.641,1.9823,3.0292,3.0292,0,0,0,.283,1.3428,3.7125,3.7125,0,0,0,.85,1.0951q.5667.518,1.6753,1.3555a26.1248,26.1248,0,0,1,2.2044,1.76,5.1457,5.1457,0,0,1,1.1207,1.4786,4.3564,4.3564,0,0,1,.3933,1.9328,4.5093,4.5093,0,0,1-1.1574,3.24,3.9257,3.9257,0,0,1-2.98,1.2183A3.8662,3.8662,0,0,1,132.48,72.4283Z" transform="translate(-1.1432 -0.65)"/><path class="cls-1" d="M147.6746,62.28h-1.872a.0873.0873,0,0,0-.0976.0991v7.5373a2.35,2.35,0,0,0,.3933,1.5636,1.4912,1.4912,0,0,0,1.207.406h.2462a.2182.2182,0,0,1,.2462.2462v1.06a.2176.2176,0,0,1-.2462.2462h-.6155a3.36,3.36,0,0,1-2.2045-.6282,3.003,3.003,0,0,1-.7513-2.3771V62.3794a.0874.0874,0,0,0-.0977-.0991h-.9607a.2176.2176,0,0,1-.2462-.2462v-.8122a.2176.2176,0,0,1,.2462-.2462h.9607a.0873.0873,0,0,0,.0977-.099V58.1176a.2176.2176,0,0,1,.2462-.2462h1.2324a.2176.2176,0,0,1,.2462.2462v2.7591a.0872.0872,0,0,0,.0976.099h1.872a.2186.2186,0,0,1,.2476.2462v.8122A.2186.2186,0,0,1,147.6746,62.28Z" transform="translate(-1.1432 -0.65)"/><path class="cls-1" d="M151.6534,58.3142a1.3739,1.3739,0,0,1,.9975-2.3643,1.3178,1.3178,0,0,1,.9735.382,1.4768,1.4768,0,0,1,0,1.9823,1.2955,1.2955,0,0,1-.9735.3948A1.3256,1.3256,0,0,1,151.6534,58.3142Zm.1358,14.8781v-11.97a.2176.2176,0,0,1,.2462-.2462h1.2565a.2176.2176,0,0,1,.2462.2462v11.97a.2176.2176,0,0,1-.2462.2462h-1.2565A.2176.2176,0,0,1,151.7892,73.1923Z" transform="translate(-1.1432 -0.65)"/><path class="cls-1" d="M160.8292,58.1544a3.7791,3.7791,0,0,0-.3947,1.9582v.7641a.0877.0877,0,0,0,.099.099h1.896a.2176.2176,0,0,1,.2462.2462v.8122a.2176.2176,0,0,1-.2462.2462h-1.896a.0877.0877,0,0,0-.099.0991V73.1923a.2176.2176,0,0,1-.2462.2462h-1.231a.218.218,0,0,1-.2476-.2462V62.3794a.0874.0874,0,0,0-.0977-.0991h-.9848a.218.218,0,0,1-.2476-.2462v-.8122a.2181.2181,0,0,1,.2476-.2462h.9848a.0873.0873,0,0,0,.0977-.099v-.7881a4.8863,4.8863,0,0,1,.79-3.1044,3.2286,3.2286,0,0,1,2.6346-.9593h.3453a.2176.2176,0,0,1,.2462.2462l-.0241,1.0088a.2186.2186,0,0,1-.2476.2462h-.2943A1.4439,1.4439,0,0,0,160.8292,58.1544Z" transform="translate(-1.1432 -0.65)"/><path class="cls-1" d="M170.6319,62.28H168.76a.0874.0874,0,0,0-.0977.0991v7.5373a2.35,2.35,0,0,0,.3934,1.5636,1.4911,1.4911,0,0,0,1.2069.406h.2462a.2182.2182,0,0,1,.2462.2462v1.06a.2176.2176,0,0,1-.2462.2462h-.6155a3.36,3.36,0,0,1-2.2044-.6282,3.003,3.003,0,0,1-.7514-2.3771V62.3794a.0873.0873,0,0,0-.0976-.0991h-.9607a.2176.2176,0,0,1-.2462-.2462v-.8122a.2176.2176,0,0,1,.2462-.2462h.9607a.0872.0872,0,0,0,.0976-.099V58.1176a.2176.2176,0,0,1,.2462-.2462h1.2325a.2175.2175,0,0,1,.2461.2462v2.7591a.0873.0873,0,0,0,.0977.099h1.8719a.2187.2187,0,0,1,.2477.2462v.8122A.2186.2186,0,0,1,170.6319,62.28Z" transform="translate(-1.1432 -0.65)"/><path class="cls-1" d="M180.4842,60.9757h1.2564a.2176.2176,0,0,1,.2462.2462v11.97a.2176.2176,0,0,1-.2462.2462h-1.2564a.2176.2176,0,0,1-.2462-.2462v-.8376c0-.0495-.0128-.0736-.0368-.0736a.1379.1379,0,0,0-.0863.05,2.6512,2.6512,0,0,1-2.4634,1.28,3.1278,3.1278,0,0,1-2.3517-.9,3.7612,3.7612,0,0,1-.8744-2.7209V61.2219a.2176.2176,0,0,1,.2462-.2462h1.2565a.2176.2176,0,0,1,.2462.2462v8.3737a2.92,2.92,0,0,0,.5051,1.8606,1.767,1.767,0,0,0,1.4645.6282,1.8413,1.8413,0,0,0,1.5394-.7145,3.0921,3.0921,0,0,0,.5547-1.947v-8.201A.2176.2176,0,0,1,180.4842,60.9757Z" transform="translate(-1.1432 -0.65)"/><path class="cls-1" d="M193.2313,61.8374a4.5057,4.5057,0,0,1,.8264,2.8823v8.4726a.2186.2186,0,0,1-.2476.2462H192.555a.2176.2176,0,0,1-.2462-.2462V64.8668a2.9331,2.9331,0,0,0-.5306-1.8719,1.77,1.77,0,0,0-1.4645-.6651,1.8359,1.8359,0,0,0-1.5394.7146A3.09,3.09,0,0,0,188.22,64.99v8.2024a.2176.2176,0,0,1-.2462.2462H186.717a.2176.2176,0,0,1-.2462-.2462v-11.97a.2176.2176,0,0,1,.2462-.2462h1.2564a.2176.2176,0,0,1,.2462.2462V62.01a.0778.0778,0,0,0,.05.0735c.0325.017.0566,0,.0735-.0495a2.7923,2.7923,0,0,1,1.1207-.9239,3.4373,3.4373,0,0,1,1.44-.3071A2.8049,2.8049,0,0,1,193.2313,61.8374Z" transform="translate(-1.1432 -0.65)"/><path class="cls-1" d="M204.3032,60.9757H205.56a.2182.2182,0,0,1,.2462.2462v11.97a5.8383,5.8383,0,0,1-1.22,4.0029q-1.2181,1.3668-4.0764,1.2437a.2446.2446,0,0,1-.2462-.2716V77.1089a.2176.2176,0,0,1,.2462-.2462,3.3119,3.3119,0,0,0,2.7591-.9,4.5093,4.5093,0,0,0,.7881-2.919v-.7386a.0844.0844,0,0,0-.0368-.0736c-.0254-.0156-.0537-.0085-.0863.024a2.7323,2.7323,0,0,1-1.0725.9367,3.11,3.11,0,0,1-1.3909.32,3.0748,3.0748,0,0,1-2.4506-1.0343,4.0144,4.0144,0,0,1-.9-2.7337v-5.197a4.0062,4.0062,0,0,1,.9-2.7464,3.0938,3.0938,0,0,1,2.4506-1.023,3.2178,3.2178,0,0,1,1.3909.3084,2.6464,2.6464,0,0,1,1.0725.924c.0326.05.0609.0693.0863.0608s.0368-.0368.0368-.0863v-.7627A.2176.2176,0,0,1,204.3032,60.9757Zm-.8249,10.3574a2.4546,2.4546,0,0,0,.5787-1.688V64.67a2.4908,2.4908,0,0,0-.5787-1.7121,1.9043,1.9043,0,0,0-1.4913-.6523,1.968,1.968,0,0,0-1.5267.6523,2.4573,2.4573,0,0,0-.5915,1.7121v4.9749a2.422,2.422,0,0,0,.5915,1.688,1.968,1.968,0,0,0,1.5267.6523A1.9043,1.9043,0,0,0,203.4783,71.3331Z" transform="translate(-1.1432 -0.65)"/></svg>