<?xml version="1.0" encoding="UTF-8"?>
<svg xmlns="http://www.w3.org/2000/svg" id="Ebene_1" data-name="Ebene 1" viewBox="0 0 1702.46 586.05" width="160" height="55">
  <defs>
    <style>
      .cls-1 {
        fill: #575756;
      }

      .cls-2 {
        fill: #ab1545;
      }
    </style>
  </defs>
  <polygon id="polygon4" class="cls-1" points="0 0 338.3 586.05 392.74 492.45 108.36 0 0 0"/>
  <polygon id="polygon6" class="cls-1" points="676.61 0 392.74 492.45 446.66 586.05 784.97 0 676.61 0"/>
  <polygon id="polygon8" class="cls-2" points="433.44 0 609.45 304.22 784.97 0 433.44 0"/>
  <polygon id="polygon10" class="cls-1" points="893.32 0 609.45 492.45 663.38 586.05 1001.68 0 893.32 0"/>
  <polygon id="polygon12" class="cls-2" points="216.72 0 555.02 586.05 609.45 492.45 325.08 0 216.72 0"/>
  <path class="cls-2" d="M1325.23,150.21l-25.43-132v-.39c0-1.16.59-1.74,1.75-1.74h6.79c1.3,0,2.01.58,2.14,1.74l20,110.06c.13.26.25.39.39.39.13,0,.25-.13.38-.39l16.89-110.06c.13-1.16.78-1.74,1.94-1.74h6.02c1.16,0,1.81.58,1.94,1.74l17.86,110.06c.13.26.25.39.39.39.13,0,.25-.13.38-.39l18.25-110.06c.26-1.16.91-1.74,1.94-1.74h6.8c.64,0,1.13.19,1.45.58.32.39.41.91.28,1.55l-24.06,132c-.14,1.17-.84,1.75-2.14,1.75h-6.21c-1.03,0-1.68-.58-1.94-1.75l-17.47-109.86c-.13-.26-.26-.39-.39-.39s-.26.13-.39.39l-17.27,109.86c-.14,1.17-.78,1.75-1.94,1.75h-6.21c-1.17,0-1.89-.58-2.14-1.75Z"/>
  <path class="cls-2" d="M1469.75,61.41c4.98,5.9,7.48,13.75,7.48,23.59v65.03c0,1.3-.65,1.94-1.95,1.94h-6.4c-1.3,0-1.94-.64-1.94-1.94v-6.99c0-.39-.09-.61-.29-.67-.19-.06-.42.03-.67.28-4.79,7.26-12.3,10.87-22.52,10.87-6.87,0-12.82-2-17.86-6.01-5.04-4.01-7.57-11.07-7.57-21.16,0-10.74,3.01-18.63,9.03-23.68,6.01-5.04,14.01-7.57,23.97-7.57h15.14c.52,0,.78-.25.78-.77v-8.93c0-7.25-1.62-13.01-4.85-17.28-3.23-4.27-7.7-6.4-13.4-6.4-4.4,0-8.25,1.42-11.54,4.28-3.31,2.84-5.21,6.53-5.73,11.06,0,1.3-.65,1.95-1.95,1.95l-6.98-.39c-.65,0-1.14-.2-1.45-.59-.33-.38-.42-.83-.29-1.36.78-7.25,3.81-13.07,9.12-17.46,5.31-4.4,11.71-6.6,19.22-6.6,8.8,0,15.69,2.94,20.67,8.83ZM1460.63,138.77c4.2-3.76,6.31-9.06,6.31-15.92v-18.44c0-.52-.26-.78-.78-.78h-15.14c-6.73,0-12.13,1.85-16.21,5.54-4.08,3.69-6.11,9.15-6.11,16.4,0,6.34,1.55,11.07,4.65,14.17,3.11,3.11,7.18,4.65,12.23,4.65,5.82,0,10.84-1.87,15.05-5.62Z"/>
  <path class="cls-2" d="M1499.73,150.02V18.03c0-1.3.65-1.94,1.95-1.94h6.4c1.3,0,1.94.64,1.94,1.94v132c0,1.3-.64,1.94-1.94,1.94h-6.4c-1.3,0-1.95-.64-1.95-1.94Z"/>
  <path class="cls-2" d="M1564.37,62.28h-15.53c-.52,0-.77.26-.77.78v62.5c0,6.48,1.1,10.97,3.3,13.49,2.2,2.53,5.7,3.79,10.48,3.79h1.95c1.28,0,1.94.64,1.94,1.94v5.24c0,1.3-.65,1.94-1.94,1.94h-3.89c-7.25,0-12.71-1.68-16.4-5.04-3.7-3.37-5.54-9.64-5.54-18.83V63.06c0-.52-.25-.78-.77-.78h-7.96c-1.3,0-1.94-.64-1.94-1.94v-4.27c0-1.3.64-1.95,1.94-1.95h7.96c.52,0,.77-.25.77-.77v-21.75c0-1.3.65-1.94,1.95-1.94h6.2c1.3,0,1.95.64,1.95,1.94v21.75c0,.52.25.77.77.77h15.53c1.3,0,1.94.65,1.94,1.95v4.27c0,1.3-.64,1.94-1.94,1.94Z"/>
  <path class="cls-2" d="M1638.71,106.73h-44.65c-.52,0-.77.26-.77.78v16.5c0,5.95,1.71,10.84,5.14,14.65,3.43,3.82,7.87,5.73,13.3,5.73,4.53,0,8.4-1.36,11.65-4.08,3.23-2.72,5.36-6.28,6.4-10.68.39-1.16,1.1-1.75,2.14-1.75l6.2.39c.52,0,.98.14,1.36.39.39.26.52.65.39,1.17v.77c-1.3,7.12-4.4,12.72-9.31,16.8-4.93,4.08-11.19,6.11-18.83,6.11-8.54,0-15.47-2.67-20.78-8.05-5.31-5.37-7.95-12.33-7.95-20.87v-42.89c0-8.54,2.64-15.53,7.95-20.97,5.31-5.43,12.24-8.15,20.78-8.15s15.65,2.72,20.96,8.15c5.31,5.43,7.96,12.43,7.96,20.97v23.09c0,1.3-.65,1.94-1.94,1.94ZM1598.43,67.43c-3.43,3.81-5.14,8.76-5.14,14.85v14.75c0,.52.25.77.77.77h35.52c.52,0,.78-.25.78-.77v-14.75c0-6.09-1.72-11.04-5.14-14.85-3.43-3.81-7.93-5.73-13.49-5.73s-9.87,1.92-13.3,5.73Z"/>
  <path class="cls-2" d="M1701.4,55.3c.91.52,1.23,1.36.98,2.52l-1.56,6.6c-.39,1.17-1.23,1.5-2.52.97-2.07-.77-4.6-1.1-7.57-.97-5.18.14-9.38,2.72-12.62,7.76-3.24,5.05-4.85,11.27-4.85,18.64v59.21c0,1.3-.65,1.94-1.94,1.94h-6.41c-1.3,0-1.94-.64-1.94-1.94V56.08c0-1.3.64-1.95,1.94-1.95h6.41c1.28,0,1.94.65,1.94,1.95v12.03c0,.39.13.59.39.59s.45-.2.58-.59c1.81-4.65,4.3-8.28,7.48-10.87,3.17-2.58,6.95-3.88,11.35-3.88,3.23,0,6.01.64,8.34,1.94Z"/>
  <path class="cls-2" d="M1128.48,345.02c0,.71-.45,1.05-1.36,1.05h-5.14c-.8,0-1.4-.31-1.81-.91l-2.11-3.17-5.14-7.4c-.29-.49-.6-.49-.91,0-3.82,4.43-7.65,7.66-11.47,9.67-3.83,2.01-8.2,3.02-13.13,3.02-7.46,0-13.34-2.1-17.67-6.27-4.33-4.18-6.49-10.14-6.49-17.89,0-6.85,1.63-12.78,4.91-17.82,3.26-5.03,7.82-10.11,13.66-15.25.31-.09.35-.35.15-.75-3.72-5.74-6.43-10.12-8.15-13.14-1.71-3.01-2.84-5.58-3.39-7.7-.56-2.11-.83-4.48-.83-7.09,0-6.75,1.89-12.13,5.66-16.15,3.78-4.03,8.69-6.04,14.72-6.04s10.99,2.01,14.87,6.04c3.88,4.02,5.81,9.31,5.81,15.85,0,6.14-1.56,11.45-4.68,15.92-3.12,4.49-7.6,9.24-13.44,14.27-.31.11-.36.36-.15.76l9.8,14.64,9.97,14.5c.09.09.24.15.45.15s.35-.05.45-.15c1.11-1.81,3.57-5.99,7.39-12.53.2-.4.51-.65.91-.76.4-.09.81-.05,1.21.15l3.62,2.12c.8.51.96,1.21.45,2.12-3.12,5.63-6.24,10.77-9.36,15.4-.11.31-.11.6,0,.91l10.87,15.7.31.76ZM1098.51,337.32c3.17-1.92,6.37-4.94,9.59-9.07.2-.29.2-.6,0-.91l-3.93-5.58-3.78-5.59-13.28-19.32c-.11-.49-.36-.55-.76-.15-4.83,4.53-8.55,8.78-11.17,12.76-2.61,3.97-3.92,8.48-3.92,13.51,0,5.33,1.47,9.53,4.45,12.61,2.96,3.06,7.12,4.6,12.45,4.6,3.73,0,7.17-.96,10.34-2.86ZM1081.07,250.66c-2.32,2.72-3.46,6.39-3.46,11.02,0,3.02.58,5.94,1.74,8.76,1.15,2.81,3.84,7.5,8.08,14.04.2.4.45.45.75.15,4.73-4.13,8.33-7.97,10.79-11.54,2.46-3.58,3.7-7.57,3.7-12.01s-1.18-7.82-3.54-10.5c-2.37-2.66-5.36-3.99-8.98-3.99s-6.75,1.36-9.07,4.08Z"/>
  <path class="cls-2" d="M1195.48,338.98c-5.76-5.75-8.65-13.35-8.65-22.81v-76.09c0-9.45,2.89-17.05,8.65-22.81,5.75-5.75,13.35-8.64,22.8-8.64s17.08,2.89,22.91,8.64c5.82,5.76,8.74,13.36,8.74,22.81v8.54c0,1.3-.65,1.94-1.95,1.94h-6.4c-1.3,0-1.94-.64-1.94-1.94v-8.73c0-6.73-1.94-12.1-5.82-16.11-3.89-4.01-9.06-6.02-15.53-6.02s-11.65,2.01-15.52,6.02c-3.89,4.01-5.82,9.38-5.82,16.11v76.48c0,6.73,1.94,12.1,5.82,16.11,3.88,4.01,9.06,6.01,15.52,6.01s11.65-2,15.53-6.01c3.89-4.01,5.82-9.38,5.82-16.11v-27.37c0-.52-.26-.78-.78-.78h-18.24c-1.3,0-1.95-.64-1.95-1.94v-5.24c0-1.28.65-1.94,1.95-1.94h27.36c1.3,0,1.95.65,1.95,1.94v35.13c0,9.46-2.92,17.06-8.74,22.81-5.82,5.76-13.46,8.64-22.91,8.64s-17.05-2.87-22.8-8.64Z"/>
  <path class="cls-2" d="M1322.03,255.51c4.98,5.9,7.48,13.75,7.48,23.59v65.03c0,1.3-.65,1.94-1.95,1.94h-6.4c-1.3,0-1.94-.64-1.94-1.94v-6.99c0-.39-.09-.61-.29-.67-.19-.06-.42.03-.67.28-4.79,7.26-12.3,10.87-22.52,10.87-6.87,0-12.82-2-17.86-6.01-5.04-4.01-7.57-11.07-7.57-21.16,0-10.74,3.01-18.63,9.03-23.68,6.01-5.04,14.01-7.57,23.97-7.57h15.14c.52,0,.78-.25.78-.77v-8.93c0-7.25-1.62-13.01-4.85-17.28-3.23-4.27-7.7-6.4-13.4-6.4-4.4,0-8.25,1.42-11.54,4.28-3.31,2.84-5.21,6.53-5.73,11.06,0,1.3-.65,1.95-1.95,1.95l-6.98-.39c-.65,0-1.14-.2-1.45-.59-.33-.38-.42-.83-.29-1.36.78-7.25,3.81-13.07,9.12-17.46,5.31-4.4,11.71-6.6,19.22-6.6,8.8,0,15.69,2.94,20.67,8.83ZM1312.91,332.87c4.2-3.76,6.31-9.06,6.31-15.92v-18.44c0-.52-.26-.78-.78-.78h-15.14c-6.73,0-12.13,1.85-16.21,5.54-4.08,3.69-6.11,9.15-6.11,16.4,0,6.34,1.55,11.07,4.65,14.17,3.11,3.11,7.18,4.65,12.23,4.65,5.82,0,10.84-1.87,15.05-5.62Z"/>
  <path class="cls-2" d="M1403.16,254.74c4.85,5.37,7.28,12.4,7.28,21.06v42.89c0,8.54-2.42,15.5-7.28,20.87s-11.29,8.05-19.31,8.05c-3.88,0-7.51-.77-10.87-2.33-3.37-1.55-6.21-3.81-8.54-6.79-.26-.25-.48-.36-.68-.28-.19.06-.28.22-.28.48v5.43c0,1.3-.65,1.94-1.94,1.94h-6.41c-1.3,0-1.94-.64-1.94-1.94v-132c0-1.3.64-1.94,1.94-1.94h6.41c1.28,0,1.94.64,1.94,1.94v43.48c0,.25.13.42.39.48.25.06.45-.03.58-.29,2.33-2.97,5.17-5.24,8.54-6.79,3.36-1.55,6.99-2.33,10.87-2.33,8.02,0,14.46,2.69,19.31,8.06ZM1395.1,261.54c-3.5-3.81-8.02-5.73-13.59-5.73s-9.65,1.92-13.01,5.73c-3.37,3.81-5.04,8.76-5.04,14.85v41.73c0,6.09,1.67,10.99,5.04,14.75,3.36,3.75,7.7,5.62,13.01,5.62s10.09-1.91,13.59-5.73c3.5-3.81,5.24-8.7,5.24-14.65v-41.73c0-6.09-1.75-11.04-5.24-14.85Z"/>
  <path class="cls-2" d="M1472.55,249.41c.91.52,1.23,1.36.98,2.52l-1.56,6.6c-.39,1.17-1.23,1.5-2.52.97-2.07-.77-4.6-1.1-7.57-.97-5.18.14-9.38,2.72-12.62,7.76-3.24,5.05-4.85,11.27-4.85,18.64v59.21c0,1.3-.65,1.94-1.94,1.94h-6.41c-1.3,0-1.94-.64-1.94-1.94v-93.95c0-1.3.64-1.95,1.94-1.95h6.41c1.28,0,1.94.65,1.94,1.95v12.03c0,.39.13.59.39.59s.45-.2.58-.59c1.81-4.65,4.3-8.28,7.48-10.87,3.17-2.58,6.95-3.88,11.35-3.88,3.23,0,6.01.64,8.34,1.94Z"/>
  <path class="cls-2" d="M1491,344.13v-93.95c0-1.3.64-1.95,1.94-1.95h6.4c1.3,0,1.95.65,1.95,1.95v93.95c0,1.3-.65,1.94-1.95,1.94h-6.4c-1.3,0-1.94-.64-1.94-1.94Z"/>
  <path class="cls-2" d="M1582.42,300.84h-44.65c-.52,0-.77.26-.77.78v16.5c0,5.95,1.71,10.84,5.14,14.65,3.43,3.82,7.87,5.73,13.3,5.73,4.53,0,8.4-1.36,11.65-4.08,3.23-2.72,5.36-6.28,6.4-10.68.39-1.16,1.1-1.75,2.14-1.75l6.2.39c.52,0,.98.14,1.36.39.39.26.52.65.39,1.17v.77c-1.3,7.12-4.4,12.72-9.31,16.8-4.93,4.08-11.19,6.11-18.83,6.11-8.54,0-15.47-2.67-20.78-8.05-5.31-5.37-7.95-12.33-7.95-20.87v-42.89c0-8.54,2.64-15.53,7.95-20.97,5.31-5.43,12.24-8.15,20.78-8.15s15.65,2.72,20.96,8.15c5.31,5.43,7.96,12.43,7.96,20.97v23.09c0,1.3-.65,1.94-1.94,1.94ZM1542.14,261.54c-3.43,3.81-5.14,8.76-5.14,14.85v14.75c0,.52.25.77.77.77h35.52c.52,0,.78-.25.78-.77v-14.75c0-6.09-1.72-11.04-5.14-14.85-3.43-3.81-7.93-5.73-13.49-5.73s-9.87,1.92-13.3,5.73Z"/>
  <path class="cls-2" d="M1605.51,344.13v-132c0-1.3.65-1.94,1.95-1.94h6.4c1.3,0,1.94.64,1.94,1.94v132c0,1.3-.64,1.94-1.94,1.94h-6.4c-1.3,0-1.95-.64-1.95-1.94Z"/>
  <path class="cls-2" d="M1693.84,300.84h-44.65c-.52,0-.77.26-.77.78v16.5c0,5.95,1.71,10.84,5.14,14.65,3.43,3.82,7.87,5.73,13.3,5.73,4.53,0,8.4-1.36,11.65-4.08,3.23-2.72,5.36-6.28,6.4-10.68.39-1.16,1.1-1.75,2.14-1.75l6.2.39c.52,0,.98.14,1.36.39.39.26.52.65.39,1.17v.77c-1.3,7.12-4.4,12.72-9.31,16.8-4.93,4.08-11.19,6.11-18.83,6.11-8.54,0-15.47-2.67-20.78-8.05-5.31-5.37-7.95-12.33-7.95-20.87v-42.89c0-8.54,2.64-15.53,7.95-20.97,5.31-5.43,12.24-8.15,20.78-8.15s15.65,2.72,20.96,8.15c5.31,5.43,7.96,12.43,7.96,20.97v23.09c0,1.3-.65,1.94-1.94,1.94ZM1653.56,261.54c-3.43,3.81-5.14,8.76-5.14,14.85v14.75c0,.52.25.77.77.77h35.52c.52,0,.78-.25.78-.77v-14.75c0-6.09-1.72-11.04-5.14-14.85-3.43-3.81-7.93-5.73-13.49-5.73s-9.87,1.92-13.3,5.73Z"/>
  <path class="cls-1" d="M909.09,538.63l-17.86-57.85c-.13-.39-.39-.58-.78-.58h-13.59c-.52,0-.78.25-.78.77v57.27c0,1.3-.64,1.94-1.94,1.94h-14.75c-1.3,0-1.94-.64-1.94-1.94v-132c0-1.3.64-1.94,1.94-1.94h34.74c6.6,0,12.43,1.61,17.47,4.84,5.05,3.24,8.96,7.8,11.74,13.69,2.79,5.89,4.18,12.58,4.18,20.09,0,8.15-1.68,15.23-5.04,21.25-3.37,6.01-7.96,10.38-13.79,13.1-.39.39-.52.78-.39,1.17l19.8,59.58.19.78c0,.91-.58,1.36-1.74,1.36h-15.14c-1.17,0-1.94-.52-2.33-1.55ZM876.08,421.19v43.48c0,.52.26.78.78.78h14.36c5.31,0,9.57-2.04,12.81-6.12,3.23-4.08,4.85-9.48,4.85-16.21s-1.62-12.52-4.85-16.6c-3.23-4.08-7.5-6.12-12.81-6.12h-14.36c-.52,0-.78.26-.78.78Z"/>
  <path class="cls-1" d="M1004.96,498.44h-43.86c-.52,0-.78.26-.78.78v10.48c0,4.67,1.3,8.48,3.89,11.46,2.58,2.97,5.95,4.47,10.09,4.47,3.62,0,6.67-1.11,9.12-3.31,2.46-2.2,4.01-5.04,4.67-8.54.39-1.03,1.1-1.55,2.14-1.55l14.36.78c.64,0,1.13.19,1.45.58.32.39.42.84.28,1.36-.91,8.41-4.11,14.98-9.6,19.7-5.5,4.72-12.97,7.08-22.42,7.08-9.96,0-17.89-2.78-23.78-8.34-5.89-5.56-8.83-13.01-8.83-22.33v-40.38c0-9.18,2.94-16.62,8.83-22.32,5.89-5.7,13.82-8.54,23.78-8.54s18.05,2.84,23.87,8.54c5.82,5.7,8.74,13.13,8.74,22.32v25.82c0,1.3-.65,1.94-1.95,1.94ZM964.2,460.4c-2.59,2.98-3.89,6.8-3.89,11.46v10.29c0,.52.26.78.78.78h26.59c.52,0,.78-.26.78-.78v-10.29c0-4.65-1.3-8.48-3.89-11.46-2.59-2.97-6.01-4.45-10.29-4.45s-7.51,1.48-10.09,4.45Z"/>
  <path class="cls-1" d="M1025.73,422.36c-2.33-2.33-3.49-5.31-3.49-8.93s1.16-6.6,3.49-8.93c2.34-2.33,5.31-3.5,8.93-3.5s6.76,1.14,9.03,3.4c2.26,2.26,3.4,5.28,3.4,9.03s-1.17,6.6-3.5,8.93c-2.33,2.33-5.31,3.5-8.93,3.5s-6.59-1.17-8.93-3.5ZM1025.54,538.24v-94.93c0-1.28.64-1.94,1.94-1.94h14.75c1.3,0,1.95.65,1.95,1.94v94.93c0,1.3-.65,1.94-1.95,1.94h-14.75c-1.3,0-1.94-.64-1.94-1.94Z"/>
  <path class="cls-1" d="M1070.66,534.26c-5.63-4.73-8.45-11.1-8.45-19.12v-1.75c0-1.28.64-1.94,1.94-1.94h13.79c1.3,0,1.94.65,1.94,1.94v1.36c0,3.5,1.36,6.45,4.09,8.84,2.72,2.4,6.08,3.59,10.09,3.59s7.01-1.17,9.41-3.5c2.39-2.33,3.59-5.3,3.59-8.93,0-2.84-.84-5.23-2.53-7.18-1.68-1.94-3.65-3.45-5.92-4.56-2.26-1.1-5.73-2.62-10.38-4.56-5.04-2.2-9.23-4.33-12.52-6.4-3.3-2.07-6.24-5.04-8.84-8.93-2.58-3.89-3.88-8.79-3.88-14.75,0-8.79,2.75-15.65,8.25-20.58,5.5-4.91,12.91-7.37,22.23-7.37s17.11,2.53,22.61,7.57c5.5,5.04,8.25,11.9,8.25,20.58v.58c0,1.3-.64,1.94-1.94,1.94h-13.4c-1.3,0-1.94-.64-1.94-1.94v-1.36c0-3.5-1.23-6.47-3.69-8.93-2.46-2.45-5.63-3.69-9.51-3.69s-7.18,1.23-9.52,3.69c-2.33,2.46-3.49,5.43-3.49,8.93,0,2.72.77,4.98,2.33,6.79,1.55,1.81,3.42,3.26,5.62,4.37,2.2,1.1,5.7,2.69,10.49,4.75,5.3,2.33,9.7,4.56,13.2,6.7,3.5,2.14,6.57,5.15,9.23,9.03,2.64,3.89,3.97,8.74,3.97,14.56,0,8.41-2.87,15.07-8.64,19.99-5.76,4.92-13.55,7.38-23.39,7.38s-17.38-2.36-23-7.09Z"/>
  <path class="cls-1" d="M1186.15,532.12c-6.28-6.4-9.41-14.79-9.41-25.14v-5.04c0-1.3.65-1.94,1.95-1.94h14.36c1.28,0,1.94.64,1.94,1.94v4.08c0,5.95,1.48,10.71,4.47,14.27,2.97,3.56,6.79,5.34,11.45,5.34s8.51-1.72,11.55-5.15c3.04-3.42,4.56-7.92,4.56-13.49,0-3.75-.81-7.05-2.42-9.9-1.62-2.84-3.76-5.4-6.4-7.67-2.65-2.26-6.96-5.59-12.91-9.99-6.6-4.92-11.77-9.13-15.53-12.62-3.75-3.5-6.92-7.7-9.51-12.62s-3.88-10.68-3.88-17.28c0-10.48,3.1-18.8,9.31-24.94,6.21-6.15,14.3-9.23,24.26-9.23s18.67,3.3,24.95,9.9c6.28,6.6,9.41,15.27,9.41,26.01v4.85c0,1.3-.65,1.94-1.95,1.94h-14.36c-1.3,0-1.94-.64-1.94-1.94v-5.24c0-5.82-1.48-10.51-4.47-14.07-2.98-3.56-6.86-5.34-11.65-5.34-4.53,0-8.21,1.59-11.06,4.76-2.85,3.17-4.28,7.6-4.28,13.29,0,5.18,1.42,9.55,4.28,13.1,2.84,3.56,8.34,8.32,16.49,14.27,7.77,5.82,13.63,10.55,17.57,14.17,3.95,3.62,6.99,7.6,9.13,11.93,2.14,4.34,3.2,9.48,3.2,15.44,0,10.87-3.17,19.57-9.51,26.11-6.34,6.53-14.63,9.79-24.85,9.79s-18.47-3.2-24.75-9.6Z"/>
  <path class="cls-1" d="M1298.83,454.96h-13.59c-.52,0-.78.26-.78.78v54.54c0,5.18.91,8.77,2.72,10.77,1.81,2.01,4.67,2.95,8.54,2.82h1.75c1.3,0,1.94.64,1.94,1.94v12.43c0,1.3-.64,1.94-1.94,1.94h-6.01c-8.29,0-14.53-1.62-18.73-4.85-4.2-3.23-6.31-9.38-6.31-18.44v-61.14c0-.52-.26-.78-.78-.78h-7.57c-1.3,0-1.94-.64-1.94-1.94v-9.71c0-1.28.64-1.94,1.94-1.94h7.57c.52,0,.78-.25.78-.78v-21.93c0-1.3.64-1.95,1.94-1.95h14.17c1.3,0,1.94.65,1.94,1.95v21.93c0,.53.26.78.78.78h13.59c1.3,0,1.94.65,1.94,1.94v9.71c0,1.3-.64,1.94-1.94,1.94Z"/>
  <path class="cls-1" d="M1316.88,422.36c-2.33-2.33-3.49-5.31-3.49-8.93s1.16-6.6,3.49-8.93c2.34-2.33,5.31-3.5,8.93-3.5s6.76,1.14,9.03,3.4c2.26,2.26,3.4,5.28,3.4,9.03s-1.17,6.6-3.5,8.93-5.31,3.5-8.93,3.5-6.59-1.17-8.93-3.5ZM1316.69,538.24v-94.93c0-1.28.64-1.94,1.94-1.94h14.75c1.3,0,1.95.65,1.95,1.94v94.93c0,1.3-.65,1.94-1.95,1.94h-14.75c-1.3,0-1.94-.64-1.94-1.94Z"/>
  <path class="cls-1" d="M1379.77,440.6c0,.53.25.78.78.78h13.59c1.3,0,1.94.65,1.94,1.94v9.71c0,1.3-.64,1.94-1.94,1.94h-13.59c-.53,0-.78.26-.78.78v82.5c0,1.3-.65,1.94-1.94,1.94h-14.56c-1.3,0-1.94-.64-1.94-1.94v-82.5c0-.52-.26-.78-.78-.78h-7.18c-1.3,0-1.94-.64-1.94-1.94v-9.71c0-1.28.64-1.94,1.94-1.94h7.18c.52,0,.78-.25.78-.78v-5.04c0-11.51,2.39-19.77,7.18-24.75,4.78-4.98,12.55-7.48,23.29-7.48h2.52c1.3,0,1.95.65,1.95,1.95l-.39,11.84c0,1.3-.65,1.94-1.95,1.94h-1.94c-4.27,0-7.37,1.4-9.32,4.18-1.94,2.78-2.91,7.08-2.91,12.9v4.47Z"/>
  <path class="cls-1" d="M1448.68,454.96h-13.59c-.52,0-.78.26-.78.78v54.54c0,5.18.91,8.77,2.72,10.77,1.81,2.01,4.67,2.95,8.54,2.82h1.75c1.3,0,1.94.64,1.94,1.94v12.43c0,1.3-.64,1.94-1.94,1.94h-6.01c-8.29,0-14.53-1.62-18.73-4.85-4.2-3.23-6.31-9.38-6.31-18.44v-61.14c0-.52-.26-.78-.78-.78h-7.57c-1.3,0-1.94-.64-1.94-1.94v-9.71c0-1.28.64-1.94,1.94-1.94h7.57c.52,0,.78-.25.78-.78v-21.93c0-1.3.64-1.95,1.94-1.95h14.17c1.3,0,1.94.65,1.94,1.95v21.93c0,.53.26.78.78.78h13.59c1.3,0,1.94.65,1.94,1.94v9.71c0,1.3-.64,1.94-1.94,1.94Z"/>
  <path class="cls-1" d="M1512.16,441.38h14.74c1.3,0,1.95.65,1.95,1.94v94.93c0,1.3-.65,1.94-1.95,1.94h-14.74c-1.3,0-1.95-.64-1.95-1.94v-5.63c0-.39-.09-.58-.28-.58-.2,0-.42.13-.68.39-3.89,6.08-10.09,9.12-18.63,9.12-7.77,0-14.05-2.36-18.83-7.09-4.79-4.72-7.18-11.93-7.18-21.64v-69.49c0-1.28.64-1.94,1.94-1.94h14.75c1.3,0,1.94.65,1.94,1.94v65.42c0,11.13,4.4,16.69,13.21,16.69,4.39,0,7.79-1.58,10.18-4.75,2.39-3.17,3.59-7.54,3.59-13.11v-64.25c0-1.28.65-1.94,1.95-1.94Z"/>
  <path class="cls-1" d="M1607.36,448.26c4.33,5.51,6.5,13.3,6.5,23.4v66.58c0,1.3-.64,1.94-1.94,1.94h-14.75c-1.3,0-1.94-.64-1.94-1.94v-65.03c0-5.43-1.17-9.64-3.5-12.62-2.33-2.98-5.56-4.47-9.71-4.47s-7.6,1.45-9.99,4.37c-2.39,2.91-3.72,7.01-3.98,12.32,0,.78-.06,1.17-.19,1.17v64.25c0,1.3-.65,1.94-1.94,1.94h-14.75c-1.3,0-1.95-.64-1.95-1.94v-94.93c0-1.28.65-1.94,1.95-1.94h14.75c1.28,0,1.94.65,1.94,1.94v5.24c0,.26.13.42.39.48.25.07.52-.09.78-.48,4.65-5.69,11.18-8.54,19.6-8.54s14.4,2.75,18.73,8.25Z"/>
  <path class="cls-1" d="M1679.65,441.38h14.75c1.3,0,1.94.65,1.94,1.94v93.96c0,13.59-3.11,24.1-9.31,31.54-6.21,7.43-16.89,11.16-32.04,11.16l-5.23-.2c-1.3-.13-1.95-.84-1.95-2.14v-12.42c0-1.3.72-1.95,2.14-1.95,10.6.39,17.89-1.72,21.84-6.31,3.94-4.59,5.92-11.74,5.92-21.44v-4.08c0-.26-.09-.42-.29-.49-.19-.06-.42.04-.67.29-4.4,5.95-10.68,8.93-18.83,8.93s-15.11-2.75-19.7-8.25c-4.59-5.51-6.89-12.97-6.89-22.42v-38.83c0-9.57,2.33-17.11,6.98-22.61,4.65-5.5,11.19-8.25,19.61-8.25s14.68,2.97,18.83,8.93c.25.25.48.32.67.19.2-.13.29-.33.29-.58v-5.05c0-1.28.64-1.94,1.94-1.94ZM1673.92,519.7c2.53-2.91,3.79-6.69,3.79-11.35v-36.49c0-4.65-1.26-8.48-3.79-11.46-2.52-2.97-5.86-4.45-9.99-4.45s-7.51,1.48-10.09,4.45c-2.59,2.98-3.89,6.8-3.89,11.46v36.49c0,4.67,1.3,8.45,3.89,11.35,2.58,2.92,5.95,4.37,10.09,4.37s7.48-1.45,9.99-4.37Z"/>
  <circle class="cls-2" cx="1496.03" cy="219.11" r="6.78"/>
</svg>
